<svg width="744" height="140" viewBox="0 0 744 140" fill="none" xmlns="http://www.w3.org/2000/svg">
<path d="M222.463 102.945H216.447V109H214.084V94.7812H223.322V96.7246H216.447V101.012H222.463V102.945ZM230.91 109.195C230.129 109.195 229.413 109.065 228.762 108.805C228.117 108.544 227.564 108.183 227.102 107.721C226.639 107.265 226.281 106.728 226.027 106.109C225.78 105.484 225.656 104.811 225.656 104.088V103.688C225.656 102.861 225.786 102.112 226.047 101.441C226.307 100.771 226.665 100.198 227.121 99.7227C227.577 99.2474 228.104 98.8828 228.703 98.6289C229.309 98.3685 229.953 98.2383 230.637 98.2383C231.398 98.2383 232.072 98.3685 232.658 98.6289C233.244 98.8828 233.736 99.2376 234.133 99.6934C234.53 100.156 234.829 100.706 235.031 101.344C235.233 101.982 235.334 102.678 235.334 103.434V104.439H228.01V104.488C228.081 104.951 228.192 105.338 228.342 105.65C228.492 105.963 228.697 106.243 228.957 106.49C229.217 106.751 229.523 106.952 229.875 107.096C230.233 107.239 230.624 107.311 231.047 107.311C231.626 107.311 232.167 107.2 232.668 106.979C233.169 106.751 233.583 106.428 233.908 106.012L235.158 107.223C234.807 107.73 234.266 108.186 233.537 108.59C232.814 108.993 231.939 109.195 230.91 109.195ZM230.627 100.133C230.295 100.133 229.986 100.195 229.699 100.318C229.419 100.436 229.169 100.605 228.947 100.826C228.726 101.054 228.54 101.327 228.391 101.646C228.241 101.965 228.13 102.327 228.059 102.73H233.029V102.574C233.029 102.268 232.974 101.965 232.863 101.666C232.753 101.36 232.596 101.093 232.395 100.865C232.199 100.644 231.952 100.468 231.652 100.338C231.359 100.201 231.018 100.133 230.627 100.133ZM242.922 109.195C242.141 109.195 241.424 109.065 240.773 108.805C240.129 108.544 239.576 108.183 239.113 107.721C238.651 107.265 238.293 106.728 238.039 106.109C237.792 105.484 237.668 104.811 237.668 104.088V103.688C237.668 102.861 237.798 102.112 238.059 101.441C238.319 100.771 238.677 100.198 239.133 99.7227C239.589 99.2474 240.116 98.8828 240.715 98.6289C241.32 98.3685 241.965 98.2383 242.648 98.2383C243.41 98.2383 244.084 98.3685 244.67 98.6289C245.256 98.8828 245.747 99.2376 246.145 99.6934C246.542 100.156 246.841 100.706 247.043 101.344C247.245 101.982 247.346 102.678 247.346 103.434V104.439H240.021V104.488C240.093 104.951 240.204 105.338 240.354 105.65C240.503 105.963 240.708 106.243 240.969 106.49C241.229 106.751 241.535 106.952 241.887 107.096C242.245 107.239 242.635 107.311 243.059 107.311C243.638 107.311 244.178 107.2 244.68 106.979C245.181 106.751 245.594 106.428 245.92 106.012L247.17 107.223C246.818 107.73 246.278 108.186 245.549 108.59C244.826 108.993 243.951 109.195 242.922 109.195ZM242.639 100.133C242.307 100.133 241.997 100.195 241.711 100.318C241.431 100.436 241.18 100.605 240.959 100.826C240.738 101.054 240.552 101.327 240.402 101.646C240.253 101.965 240.142 102.327 240.07 102.73H245.041V102.574C245.041 102.268 244.986 101.965 244.875 101.666C244.764 101.36 244.608 101.093 244.406 100.865C244.211 100.644 243.964 100.468 243.664 100.338C243.371 100.201 243.029 100.133 242.639 100.133ZM249.689 103.639C249.689 102.838 249.784 102.109 249.973 101.451C250.168 100.787 250.448 100.217 250.812 99.7422C251.171 99.2669 251.607 98.8991 252.121 98.6387C252.642 98.3717 253.228 98.2383 253.879 98.2383C254.465 98.2383 254.976 98.3424 255.412 98.5508C255.855 98.7526 256.245 99.0423 256.584 99.4199V94H258.918V109H256.799L256.691 107.896C256.353 108.313 255.949 108.635 255.48 108.863C255.012 109.085 254.471 109.195 253.859 109.195C253.215 109.195 252.635 109.062 252.121 108.795C251.607 108.521 251.171 108.144 250.812 107.662C250.454 107.187 250.178 106.624 249.982 105.973C249.787 105.315 249.689 104.605 249.689 103.844V103.639ZM252.023 103.844C252.023 104.312 252.069 104.755 252.16 105.172C252.251 105.589 252.395 105.95 252.59 106.256C252.785 106.575 253.036 106.826 253.342 107.008C253.648 107.184 254.016 107.271 254.445 107.271C254.973 107.271 255.409 107.158 255.754 106.93C256.099 106.695 256.376 106.38 256.584 105.982V101.441C256.376 101.051 256.099 100.742 255.754 100.514C255.415 100.279 254.986 100.162 254.465 100.162C254.029 100.162 253.654 100.253 253.342 100.436C253.036 100.618 252.788 100.868 252.6 101.188C252.398 101.507 252.251 101.878 252.16 102.301C252.069 102.717 252.023 103.163 252.023 103.639V103.844ZM271.301 103.824C271.301 104.312 271.265 104.778 271.193 105.221C271.122 105.663 271.018 106.074 270.881 106.451C270.725 106.9 270.516 107.307 270.256 107.672C269.995 108.036 269.683 108.339 269.318 108.58C269.025 108.775 268.697 108.925 268.332 109.029C267.974 109.14 267.583 109.195 267.16 109.195C266.73 109.195 266.34 109.143 265.988 109.039C265.637 108.935 265.321 108.782 265.041 108.58C264.898 108.476 264.761 108.365 264.631 108.248C264.507 108.124 264.387 107.991 264.27 107.848L264.162 109H262.053V94H264.387V99.4688C264.523 99.2995 264.673 99.1465 264.836 99.0098C264.999 98.873 265.174 98.7526 265.363 98.6484C265.611 98.5117 265.881 98.4108 266.174 98.3457C266.473 98.2741 266.796 98.2383 267.141 98.2383C267.596 98.2383 268.013 98.3001 268.391 98.4238C268.775 98.541 269.12 98.7103 269.426 98.9316C269.686 99.1139 269.917 99.3385 270.119 99.6055C270.327 99.8659 270.51 100.152 270.666 100.465C270.874 100.901 271.031 101.386 271.135 101.92C271.245 102.454 271.301 103.02 271.301 103.619V103.824ZM268.967 103.619C268.967 103.32 268.947 103.03 268.908 102.75C268.876 102.464 268.827 102.197 268.762 101.949C268.671 101.65 268.55 101.38 268.4 101.139C268.257 100.891 268.062 100.683 267.814 100.514C267.652 100.396 267.466 100.309 267.258 100.25C267.049 100.191 266.815 100.162 266.555 100.162C266.236 100.162 265.949 100.208 265.695 100.299C265.441 100.383 265.22 100.507 265.031 100.67C264.895 100.781 264.771 100.911 264.66 101.061C264.556 101.204 264.465 101.36 264.387 101.529V105.904C264.478 106.1 264.585 106.279 264.709 106.441C264.839 106.598 264.986 106.738 265.148 106.861C265.331 106.992 265.539 107.096 265.773 107.174C266.014 107.245 266.281 107.281 266.574 107.281C266.841 107.281 267.082 107.249 267.297 107.184C267.512 107.112 267.704 107.018 267.873 106.9C268.101 106.738 268.286 106.533 268.43 106.285C268.579 106.031 268.693 105.748 268.771 105.436C268.837 105.201 268.885 104.947 268.918 104.674C268.951 104.4 268.967 104.117 268.967 103.824V103.619ZM280.773 109C280.702 108.87 280.643 108.714 280.598 108.531C280.559 108.342 280.523 108.147 280.49 107.945C280.327 108.115 280.142 108.277 279.934 108.434C279.732 108.583 279.504 108.714 279.25 108.824C278.996 108.941 278.723 109.033 278.43 109.098C278.137 109.163 277.821 109.195 277.482 109.195C276.936 109.195 276.434 109.117 275.979 108.961C275.529 108.798 275.145 108.577 274.826 108.297C274.501 108.023 274.247 107.695 274.064 107.311C273.889 106.92 273.801 106.5 273.801 106.051C273.801 105.471 273.915 104.96 274.143 104.518C274.377 104.068 274.715 103.697 275.158 103.404C275.568 103.131 276.073 102.923 276.672 102.779C277.277 102.636 277.961 102.564 278.723 102.564H280.422V101.852C280.422 101.578 280.373 101.331 280.275 101.109C280.184 100.888 280.051 100.696 279.875 100.533C279.686 100.37 279.455 100.247 279.182 100.162C278.915 100.071 278.605 100.025 278.254 100.025C277.935 100.025 277.655 100.064 277.414 100.143C277.18 100.221 276.984 100.328 276.828 100.465C276.672 100.589 276.555 100.742 276.477 100.924C276.405 101.1 276.369 101.288 276.369 101.49H274.025C274.032 101.067 274.133 100.66 274.328 100.27C274.523 99.8789 274.81 99.5339 275.188 99.2344C275.552 98.9284 276.001 98.6875 276.535 98.5117C277.076 98.3294 277.691 98.2383 278.381 98.2383C278.999 98.2383 279.576 98.3164 280.109 98.4727C280.65 98.6224 281.115 98.847 281.506 99.1465C281.896 99.446 282.202 99.8268 282.424 100.289C282.645 100.745 282.756 101.272 282.756 101.871V106.568C282.756 107.044 282.788 107.473 282.854 107.857C282.925 108.235 283.026 108.561 283.156 108.834V109H280.773ZM277.932 107.32C278.238 107.32 278.521 107.281 278.781 107.203C279.048 107.125 279.289 107.024 279.504 106.9C279.719 106.777 279.904 106.637 280.061 106.48C280.217 106.324 280.337 106.161 280.422 105.992V104.039H278.918C278.41 104.039 277.971 104.088 277.6 104.186C277.229 104.277 276.932 104.41 276.711 104.586C276.516 104.736 276.369 104.915 276.271 105.123C276.18 105.331 276.135 105.566 276.135 105.826C276.135 106.041 276.174 106.243 276.252 106.432C276.33 106.614 276.444 106.77 276.594 106.9C276.743 107.031 276.929 107.135 277.15 107.213C277.372 107.285 277.632 107.32 277.932 107.32ZM290.637 107.32C290.93 107.32 291.21 107.278 291.477 107.193C291.75 107.102 291.991 106.975 292.199 106.812C292.401 106.65 292.561 106.458 292.678 106.236C292.801 106.015 292.863 105.771 292.863 105.504H295.061C295.067 106.018 294.95 106.503 294.709 106.959C294.475 107.408 294.156 107.796 293.752 108.121C293.342 108.46 292.87 108.727 292.336 108.922C291.809 109.111 291.252 109.205 290.666 109.205C289.852 109.205 289.139 109.065 288.527 108.785C287.922 108.499 287.417 108.115 287.014 107.633C286.604 107.151 286.294 106.591 286.086 105.953C285.878 105.309 285.773 104.622 285.773 103.893V103.551C285.773 102.828 285.874 102.145 286.076 101.5C286.285 100.855 286.594 100.292 287.004 99.8105C287.414 99.3288 287.922 98.9479 288.527 98.668C289.139 98.3815 289.849 98.2383 290.656 98.2383C291.294 98.2383 291.883 98.3359 292.424 98.5312C292.971 98.7266 293.439 99 293.83 99.3516C294.221 99.7031 294.523 100.123 294.738 100.611C294.96 101.1 295.067 101.637 295.061 102.223H292.863C292.863 101.936 292.808 101.666 292.697 101.412C292.593 101.158 292.443 100.937 292.248 100.748C292.046 100.559 291.805 100.41 291.525 100.299C291.252 100.188 290.956 100.133 290.637 100.133C290.148 100.133 289.742 100.234 289.416 100.436C289.097 100.631 288.843 100.888 288.654 101.207C288.452 101.526 288.309 101.891 288.225 102.301C288.146 102.711 288.107 103.128 288.107 103.551V103.893C288.107 104.322 288.146 104.745 288.225 105.162C288.309 105.572 288.449 105.934 288.645 106.246C288.833 106.572 289.09 106.832 289.416 107.027C289.742 107.223 290.148 107.32 290.637 107.32ZM301.682 104.4L300.412 105.602V109H298.068V94H300.412V102.828L301.379 101.754L304.533 98.4336H307.346L303.234 102.838L307.941 109H305.051L301.682 104.4Z" fill="#FF3838"/>
<path d="M409.24 109L407.385 94.7812H409.562L410.539 103.512L410.607 104.068L410.705 103.482L412.072 94.7812H413.869L415.285 103.521L415.383 104.107L415.451 103.512L416.438 94.7812H418.625L416.75 109H414.533L413.088 100.299L412.99 99.625L412.883 100.299L411.457 109H409.24ZM420.998 98.4336H426.604V107.066H429.709V109H420.998V107.066H424.25V100.377H420.998V98.4336ZM424.035 95.6992C424.035 95.5104 424.068 95.3379 424.133 95.1816C424.198 95.0189 424.292 94.8789 424.416 94.7617C424.533 94.651 424.673 94.5664 424.836 94.5078C425.005 94.4427 425.194 94.4102 425.402 94.4102C425.754 94.4102 426.037 94.5013 426.252 94.6836C426.473 94.8594 426.6 95.0872 426.633 95.3672C426.678 95.6536 426.63 95.9043 426.486 96.1191C426.343 96.3275 426.135 96.4674 425.861 96.5391C425.725 96.6628 425.562 96.7441 425.373 96.7832C425.184 96.8223 424.976 96.806 424.748 96.7344C424.514 96.6628 424.335 96.5358 424.211 96.3535C424.094 96.1647 424.035 95.9466 424.035 95.6992ZM439.777 98.2383C440.155 98.2383 440.52 98.2643 440.871 98.3164C441.229 98.3685 441.509 98.4303 441.711 98.502L441.379 100.807C441.021 100.729 440.666 100.67 440.314 100.631C439.969 100.592 439.624 100.572 439.279 100.572C438.889 100.572 438.537 100.611 438.225 100.689C437.912 100.768 437.635 100.888 437.395 101.051C437.134 101.207 436.913 101.406 436.73 101.646C436.548 101.887 436.395 102.164 436.271 102.477V109H433.938V98.4336H436.125L436.223 99.8984L436.232 100.143C436.662 99.5501 437.176 99.0846 437.775 98.7461C438.381 98.4076 439.048 98.2383 439.777 98.2383ZM449.416 109.195C448.635 109.195 447.919 109.065 447.268 108.805C446.623 108.544 446.07 108.183 445.607 107.721C445.145 107.265 444.787 106.728 444.533 106.109C444.286 105.484 444.162 104.811 444.162 104.088V103.688C444.162 102.861 444.292 102.112 444.553 101.441C444.813 100.771 445.171 100.198 445.627 99.7227C446.083 99.2474 446.61 98.8828 447.209 98.6289C447.814 98.3685 448.459 98.2383 449.143 98.2383C449.904 98.2383 450.578 98.3685 451.164 98.6289C451.75 98.8828 452.242 99.2376 452.639 99.6934C453.036 100.156 453.335 100.706 453.537 101.344C453.739 101.982 453.84 102.678 453.84 103.434V104.439H446.516V104.488C446.587 104.951 446.698 105.338 446.848 105.65C446.997 105.963 447.202 106.243 447.463 106.49C447.723 106.751 448.029 106.952 448.381 107.096C448.739 107.239 449.13 107.311 449.553 107.311C450.132 107.311 450.673 107.2 451.174 106.979C451.675 106.751 452.089 106.428 452.414 106.012L453.664 107.223C453.312 107.73 452.772 108.186 452.043 108.59C451.32 108.993 450.445 109.195 449.416 109.195ZM449.133 100.133C448.801 100.133 448.492 100.195 448.205 100.318C447.925 100.436 447.674 100.605 447.453 100.826C447.232 101.054 447.046 101.327 446.896 101.646C446.747 101.965 446.636 102.327 446.564 102.73H451.535V102.574C451.535 102.268 451.48 101.965 451.369 101.666C451.258 101.36 451.102 101.093 450.9 100.865C450.705 100.644 450.458 100.468 450.158 100.338C449.865 100.201 449.523 100.133 449.133 100.133ZM459.152 109V100.182H456.32V98.4336H459.152V97.7891C459.152 97.099 459.257 96.4935 459.465 95.9727C459.68 95.4453 459.982 95.0026 460.373 94.6445C460.764 94.293 461.232 94.026 461.779 93.8438C462.333 93.6615 462.951 93.5703 463.635 93.5703C463.876 93.5703 464.11 93.5833 464.338 93.6094C464.572 93.6289 464.8 93.6549 465.021 93.6875C465.204 93.7135 465.389 93.7461 465.578 93.7852C465.767 93.8177 465.959 93.8535 466.154 93.8926L465.969 95.7578C465.708 95.6862 465.412 95.6243 465.08 95.5723C464.755 95.5202 464.383 95.4941 463.967 95.4941C463.531 95.4941 463.153 95.5462 462.834 95.6504C462.521 95.7546 462.264 95.9076 462.062 96.1094C461.874 96.2982 461.73 96.5326 461.633 96.8125C461.542 97.0924 461.496 97.418 461.496 97.7891V98.4336H465.412V100.182H461.496V109H459.152ZM475.812 98.2383C476.19 98.2383 476.555 98.2643 476.906 98.3164C477.264 98.3685 477.544 98.4303 477.746 98.502L477.414 100.807C477.056 100.729 476.701 100.67 476.35 100.631C476.005 100.592 475.66 100.572 475.314 100.572C474.924 100.572 474.572 100.611 474.26 100.689C473.947 100.768 473.671 100.888 473.43 101.051C473.169 101.207 472.948 101.406 472.766 101.646C472.583 101.887 472.43 102.164 472.307 102.477V109H469.973V98.4336H472.16L472.258 99.8984L472.268 100.143C472.697 99.5501 473.212 99.0846 473.811 98.7461C474.416 98.4076 475.083 98.2383 475.812 98.2383ZM487.268 109C487.196 108.87 487.137 108.714 487.092 108.531C487.053 108.342 487.017 108.147 486.984 107.945C486.822 108.115 486.636 108.277 486.428 108.434C486.226 108.583 485.998 108.714 485.744 108.824C485.49 108.941 485.217 109.033 484.924 109.098C484.631 109.163 484.315 109.195 483.977 109.195C483.43 109.195 482.928 109.117 482.473 108.961C482.023 108.798 481.639 108.577 481.32 108.297C480.995 108.023 480.741 107.695 480.559 107.311C480.383 106.92 480.295 106.5 480.295 106.051C480.295 105.471 480.409 104.96 480.637 104.518C480.871 104.068 481.21 103.697 481.652 103.404C482.062 103.131 482.567 102.923 483.166 102.779C483.771 102.636 484.455 102.564 485.217 102.564H486.916V101.852C486.916 101.578 486.867 101.331 486.77 101.109C486.678 100.888 486.545 100.696 486.369 100.533C486.18 100.37 485.949 100.247 485.676 100.162C485.409 100.071 485.1 100.025 484.748 100.025C484.429 100.025 484.149 100.064 483.908 100.143C483.674 100.221 483.479 100.328 483.322 100.465C483.166 100.589 483.049 100.742 482.971 100.924C482.899 101.1 482.863 101.288 482.863 101.49H480.52C480.526 101.067 480.627 100.66 480.822 100.27C481.018 99.8789 481.304 99.5339 481.682 99.2344C482.046 98.9284 482.495 98.6875 483.029 98.5117C483.57 98.3294 484.185 98.2383 484.875 98.2383C485.493 98.2383 486.07 98.3164 486.604 98.4727C487.144 98.6224 487.609 98.847 488 99.1465C488.391 99.446 488.697 99.8268 488.918 100.289C489.139 100.745 489.25 101.272 489.25 101.871V106.568C489.25 107.044 489.283 107.473 489.348 107.857C489.419 108.235 489.52 108.561 489.65 108.834V109H487.268ZM484.426 107.32C484.732 107.32 485.015 107.281 485.275 107.203C485.542 107.125 485.783 107.024 485.998 106.9C486.213 106.777 486.398 106.637 486.555 106.48C486.711 106.324 486.831 106.161 486.916 105.992V104.039H485.412C484.904 104.039 484.465 104.088 484.094 104.186C483.723 104.277 483.426 104.41 483.205 104.586C483.01 104.736 482.863 104.915 482.766 105.123C482.674 105.331 482.629 105.566 482.629 105.826C482.629 106.041 482.668 106.243 482.746 106.432C482.824 106.614 482.938 106.77 483.088 106.9C483.238 107.031 483.423 107.135 483.645 107.213C483.866 107.285 484.126 107.32 484.426 107.32ZM493.859 98.4336L493.928 99.5957C494.13 99.1725 494.406 98.8405 494.758 98.5996C495.116 98.3587 495.546 98.2383 496.047 98.2383C496.307 98.2383 496.542 98.2676 496.75 98.3262C496.958 98.3848 497.137 98.4759 497.287 98.5996C497.404 98.6908 497.508 98.8014 497.6 98.9316C497.691 99.0553 497.769 99.1986 497.834 99.3613C497.925 99.2116 498.029 99.0716 498.146 98.9414C498.264 98.8112 498.391 98.7005 498.527 98.6094C498.703 98.4922 498.898 98.401 499.113 98.3359C499.335 98.2708 499.576 98.2383 499.836 98.2383C500.174 98.2383 500.484 98.2969 500.764 98.4141C501.05 98.5247 501.298 98.6973 501.506 98.9316C501.714 99.179 501.874 99.5013 501.984 99.8984C502.102 100.289 502.16 100.761 502.16 101.314V109H500.012V101.295C500.012 101.087 499.989 100.911 499.943 100.768C499.898 100.618 499.833 100.497 499.748 100.406C499.663 100.322 499.559 100.26 499.436 100.221C499.318 100.182 499.188 100.162 499.045 100.162C498.895 100.162 498.765 100.182 498.654 100.221C498.544 100.26 498.446 100.315 498.361 100.387C498.283 100.452 498.218 100.53 498.166 100.621C498.114 100.706 498.075 100.803 498.049 100.914C498.049 100.94 498.049 100.973 498.049 101.012C498.049 101.044 498.049 101.093 498.049 101.158V109H495.939V101.285C495.939 101.077 495.917 100.901 495.871 100.758C495.832 100.608 495.77 100.491 495.686 100.406C495.601 100.322 495.5 100.26 495.383 100.221C495.272 100.182 495.145 100.162 495.002 100.162C494.846 100.162 494.706 100.185 494.582 100.23C494.465 100.27 494.364 100.331 494.279 100.416C494.214 100.475 494.156 100.543 494.104 100.621C494.058 100.699 494.016 100.787 493.977 100.885V109H491.828V98.4336H493.859ZM505.08 98.4336H510.686V107.066H513.791V109H505.08V107.066H508.332V100.377H505.08V98.4336ZM508.117 95.6992C508.117 95.5104 508.15 95.3379 508.215 95.1816C508.28 95.0189 508.374 94.8789 508.498 94.7617C508.615 94.651 508.755 94.5664 508.918 94.5078C509.087 94.4427 509.276 94.4102 509.484 94.4102C509.836 94.4102 510.119 94.5013 510.334 94.6836C510.555 94.8594 510.682 95.0872 510.715 95.3672C510.76 95.6536 510.712 95.9043 510.568 96.1191C510.425 96.3275 510.217 96.4674 509.943 96.5391C509.807 96.6628 509.644 96.7441 509.455 96.7832C509.266 96.8223 509.058 96.806 508.83 96.7344C508.596 96.6628 508.417 96.5358 508.293 96.3535C508.176 96.1647 508.117 95.9466 508.117 95.6992ZM516.555 109V98.4336H518.664L518.811 99.9375C518.954 99.7357 519.11 99.5501 519.279 99.3809C519.455 99.2051 519.641 99.0488 519.836 98.9121C520.148 98.6973 520.49 98.5312 520.861 98.4141C521.232 98.2969 521.623 98.2383 522.033 98.2383C522.574 98.2383 523.068 98.3164 523.518 98.4727C523.967 98.6289 524.351 98.8763 524.67 99.2148C524.989 99.5534 525.236 99.9863 525.412 100.514C525.588 101.035 525.676 101.666 525.676 102.408V109H523.342V102.447C523.342 102.011 523.293 101.646 523.195 101.354C523.098 101.061 522.954 100.826 522.766 100.65C522.577 100.475 522.349 100.351 522.082 100.279C521.815 100.201 521.509 100.162 521.164 100.162C520.878 100.162 520.611 100.201 520.363 100.279C520.116 100.351 519.891 100.455 519.689 100.592C519.533 100.696 519.387 100.823 519.25 100.973C519.113 101.122 518.993 101.285 518.889 101.461V109H516.555ZM528.264 103.639C528.264 102.838 528.361 102.109 528.557 101.451C528.752 100.787 529.035 100.217 529.406 99.7422C529.777 99.2669 530.223 98.8991 530.744 98.6387C531.271 98.3717 531.864 98.2383 532.521 98.2383C532.912 98.2383 533.267 98.2806 533.586 98.3652C533.905 98.4434 534.195 98.5605 534.455 98.7168C534.624 98.8145 534.784 98.9316 534.934 99.0684C535.083 99.1986 535.223 99.3418 535.354 99.498L535.451 98.4336H537.57V108.707C537.57 109.417 537.453 110.045 537.219 110.592C536.991 111.145 536.669 111.614 536.252 111.998C535.829 112.376 535.321 112.662 534.729 112.857C534.143 113.059 533.495 113.16 532.785 113.16C532.486 113.16 532.157 113.128 531.799 113.062C531.441 112.997 531.083 112.896 530.725 112.76C530.367 112.623 530.025 112.444 529.699 112.223C529.374 112.001 529.094 111.734 528.859 111.422L529.963 110.006C530.152 110.234 530.354 110.429 530.568 110.592C530.79 110.761 531.014 110.898 531.242 111.002C531.47 111.106 531.701 111.181 531.936 111.227C532.17 111.279 532.408 111.305 532.648 111.305C533.065 111.305 533.433 111.246 533.752 111.129C534.077 111.012 534.354 110.842 534.582 110.621C534.79 110.406 534.95 110.143 535.061 109.83C535.178 109.518 535.236 109.163 535.236 108.766V108.033C535.1 108.176 534.956 108.31 534.807 108.434C534.663 108.557 534.507 108.665 534.338 108.756C534.084 108.899 533.804 109.007 533.498 109.078C533.192 109.156 532.86 109.195 532.502 109.195C531.851 109.195 531.265 109.062 530.744 108.795C530.223 108.521 529.777 108.144 529.406 107.662C529.042 107.187 528.758 106.624 528.557 105.973C528.361 105.315 528.264 104.605 528.264 103.844V103.639ZM530.607 103.844C530.607 104.312 530.653 104.755 530.744 105.172C530.842 105.589 530.995 105.95 531.203 106.256C531.405 106.575 531.662 106.826 531.975 107.008C532.287 107.184 532.658 107.271 533.088 107.271C533.355 107.271 533.596 107.242 533.811 107.184C534.032 107.125 534.23 107.044 534.406 106.939C534.582 106.829 534.738 106.695 534.875 106.539C535.012 106.383 535.132 106.21 535.236 106.021V101.393C535.132 101.197 535.005 101.021 534.855 100.865C534.712 100.709 534.546 100.576 534.357 100.465C534.188 100.374 533.999 100.302 533.791 100.25C533.583 100.191 533.355 100.162 533.107 100.162C532.671 100.162 532.297 100.253 531.984 100.436C531.672 100.618 531.415 100.868 531.213 101.188C531.005 101.507 530.852 101.878 530.754 102.301C530.656 102.717 530.607 103.163 530.607 103.639V103.844Z" fill="#FF3838"/>
<path d="M666.48 102.945H660.465V109H658.102V94.7812H667.34V96.7246H660.465V101.012H666.48V102.945ZM670.533 98.4336H676.139V107.066H679.244V109H670.533V107.066H673.785V100.377H670.533V98.4336ZM673.57 95.6992C673.57 95.5104 673.603 95.3379 673.668 95.1816C673.733 95.0189 673.827 94.8789 673.951 94.7617C674.068 94.651 674.208 94.5664 674.371 94.5078C674.54 94.4427 674.729 94.4102 674.938 94.4102C675.289 94.4102 675.572 94.5013 675.787 94.6836C676.008 94.8594 676.135 95.0872 676.168 95.3672C676.214 95.6536 676.165 95.9043 676.021 96.1191C675.878 96.3275 675.67 96.4674 675.396 96.5391C675.26 96.6628 675.097 96.7441 674.908 96.7832C674.719 96.8223 674.511 96.806 674.283 96.7344C674.049 96.6628 673.87 96.5358 673.746 96.3535C673.629 96.1647 673.57 95.9466 673.57 95.6992ZM682.008 109V98.4336H684.117L684.264 99.9375C684.407 99.7357 684.563 99.5501 684.732 99.3809C684.908 99.2051 685.094 99.0488 685.289 98.9121C685.602 98.6973 685.943 98.5312 686.314 98.4141C686.686 98.2969 687.076 98.2383 687.486 98.2383C688.027 98.2383 688.521 98.3164 688.971 98.4727C689.42 98.6289 689.804 98.8763 690.123 99.2148C690.442 99.5534 690.689 99.9863 690.865 100.514C691.041 101.035 691.129 101.666 691.129 102.408V109H688.795V102.447C688.795 102.011 688.746 101.646 688.648 101.354C688.551 101.061 688.408 100.826 688.219 100.65C688.03 100.475 687.802 100.351 687.535 100.279C687.268 100.201 686.962 100.162 686.617 100.162C686.331 100.162 686.064 100.201 685.816 100.279C685.569 100.351 685.344 100.455 685.143 100.592C684.986 100.696 684.84 100.823 684.703 100.973C684.566 101.122 684.446 101.285 684.342 101.461V109H682.008ZM700.768 109C700.696 108.87 700.637 108.714 700.592 108.531C700.553 108.342 700.517 108.147 700.484 107.945C700.322 108.115 700.136 108.277 699.928 108.434C699.726 108.583 699.498 108.714 699.244 108.824C698.99 108.941 698.717 109.033 698.424 109.098C698.131 109.163 697.815 109.195 697.477 109.195C696.93 109.195 696.428 109.117 695.973 108.961C695.523 108.798 695.139 108.577 694.82 108.297C694.495 108.023 694.241 107.695 694.059 107.311C693.883 106.92 693.795 106.5 693.795 106.051C693.795 105.471 693.909 104.96 694.137 104.518C694.371 104.068 694.71 103.697 695.152 103.404C695.562 103.131 696.067 102.923 696.666 102.779C697.271 102.636 697.955 102.564 698.717 102.564H700.416V101.852C700.416 101.578 700.367 101.331 700.27 101.109C700.178 100.888 700.045 100.696 699.869 100.533C699.68 100.37 699.449 100.247 699.176 100.162C698.909 100.071 698.6 100.025 698.248 100.025C697.929 100.025 697.649 100.064 697.408 100.143C697.174 100.221 696.979 100.328 696.822 100.465C696.666 100.589 696.549 100.742 696.471 100.924C696.399 101.1 696.363 101.288 696.363 101.49H694.02C694.026 101.067 694.127 100.66 694.322 100.27C694.518 99.8789 694.804 99.5339 695.182 99.2344C695.546 98.9284 695.995 98.6875 696.529 98.5117C697.07 98.3294 697.685 98.2383 698.375 98.2383C698.993 98.2383 699.57 98.3164 700.104 98.4727C700.644 98.6224 701.109 98.847 701.5 99.1465C701.891 99.446 702.197 99.8268 702.418 100.289C702.639 100.745 702.75 101.272 702.75 101.871V106.568C702.75 107.044 702.783 107.473 702.848 107.857C702.919 108.235 703.02 108.561 703.15 108.834V109H700.768ZM697.926 107.32C698.232 107.32 698.515 107.281 698.775 107.203C699.042 107.125 699.283 107.024 699.498 106.9C699.713 106.777 699.898 106.637 700.055 106.48C700.211 106.324 700.331 106.161 700.416 105.992V104.039H698.912C698.404 104.039 697.965 104.088 697.594 104.186C697.223 104.277 696.926 104.41 696.705 104.586C696.51 104.736 696.363 104.915 696.266 105.123C696.174 105.331 696.129 105.566 696.129 105.826C696.129 106.041 696.168 106.243 696.246 106.432C696.324 106.614 696.438 106.77 696.588 106.9C696.738 107.031 696.923 107.135 697.145 107.213C697.366 107.285 697.626 107.32 697.926 107.32ZM706.48 94H712.174V107.066H715.377V109H706.48V107.066H709.82V95.9434H706.48V94ZM651.812 135V120.781H655.328C655.94 120.781 656.516 120.853 657.057 120.996C657.597 121.133 658.089 121.325 658.531 121.572C659.013 121.826 659.439 122.145 659.811 122.529C660.188 122.913 660.504 123.343 660.758 123.818C661.018 124.313 661.22 124.857 661.363 125.449C661.507 126.042 661.578 126.673 661.578 127.344V128.457C661.578 129.102 661.51 129.714 661.373 130.293C661.243 130.866 661.054 131.39 660.807 131.865C660.566 132.327 660.273 132.747 659.928 133.125C659.589 133.503 659.212 133.825 658.795 134.092C658.326 134.385 657.805 134.609 657.232 134.766C656.666 134.922 656.057 135 655.406 135H651.812ZM654.186 122.695V133.096H655.406C655.823 133.096 656.204 133.047 656.549 132.949C656.9 132.845 657.216 132.699 657.496 132.51C657.783 132.314 658.036 132.07 658.258 131.777C658.486 131.478 658.671 131.136 658.814 130.752C658.938 130.426 659.033 130.072 659.098 129.688C659.163 129.303 659.195 128.893 659.195 128.457V127.324C659.195 126.895 659.163 126.488 659.098 126.104C659.033 125.719 658.938 125.365 658.814 125.039C658.658 124.642 658.45 124.284 658.189 123.965C657.929 123.639 657.62 123.376 657.262 123.174C657.001 123.024 656.708 122.91 656.383 122.832C656.057 122.747 655.706 122.702 655.328 122.695H654.186ZM668.922 135.195C668.141 135.195 667.424 135.065 666.773 134.805C666.129 134.544 665.576 134.183 665.113 133.721C664.651 133.265 664.293 132.728 664.039 132.109C663.792 131.484 663.668 130.811 663.668 130.088V129.688C663.668 128.861 663.798 128.112 664.059 127.441C664.319 126.771 664.677 126.198 665.133 125.723C665.589 125.247 666.116 124.883 666.715 124.629C667.32 124.368 667.965 124.238 668.648 124.238C669.41 124.238 670.084 124.368 670.67 124.629C671.256 124.883 671.747 125.238 672.145 125.693C672.542 126.156 672.841 126.706 673.043 127.344C673.245 127.982 673.346 128.678 673.346 129.434V130.439H666.021V130.488C666.093 130.951 666.204 131.338 666.354 131.65C666.503 131.963 666.708 132.243 666.969 132.49C667.229 132.751 667.535 132.952 667.887 133.096C668.245 133.239 668.635 133.311 669.059 133.311C669.638 133.311 670.178 133.2 670.68 132.979C671.181 132.751 671.594 132.428 671.92 132.012L673.17 133.223C672.818 133.73 672.278 134.186 671.549 134.59C670.826 134.993 669.951 135.195 668.922 135.195ZM668.639 126.133C668.307 126.133 667.997 126.195 667.711 126.318C667.431 126.436 667.18 126.605 666.959 126.826C666.738 127.054 666.552 127.327 666.402 127.646C666.253 127.965 666.142 128.327 666.07 128.73H671.041V128.574C671.041 128.268 670.986 127.965 670.875 127.666C670.764 127.36 670.608 127.093 670.406 126.865C670.211 126.644 669.964 126.468 669.664 126.338C669.371 126.201 669.029 126.133 668.639 126.133ZM682.906 132.139C682.906 131.956 682.864 131.794 682.779 131.65C682.701 131.507 682.568 131.37 682.379 131.24C682.177 131.123 681.913 131.012 681.588 130.908C681.262 130.804 680.855 130.706 680.367 130.615C679.755 130.492 679.195 130.339 678.688 130.156C678.186 129.974 677.753 129.753 677.389 129.492C677.031 129.245 676.751 128.952 676.549 128.613C676.347 128.275 676.246 127.881 676.246 127.432C676.246 127.002 676.347 126.595 676.549 126.211C676.757 125.82 677.053 125.479 677.438 125.186C677.815 124.893 678.271 124.661 678.805 124.492C679.345 124.323 679.944 124.238 680.602 124.238C681.305 124.238 681.936 124.326 682.496 124.502C683.056 124.671 683.531 124.906 683.922 125.205C684.306 125.505 684.602 125.859 684.811 126.27C685.019 126.68 685.123 127.122 685.123 127.598H682.789C682.789 127.402 682.747 127.217 682.662 127.041C682.584 126.859 682.467 126.696 682.311 126.553C682.128 126.383 681.894 126.25 681.607 126.152C681.321 126.048 680.986 125.996 680.602 125.996C680.25 125.996 679.941 126.035 679.674 126.113C679.413 126.185 679.199 126.286 679.029 126.416C678.86 126.533 678.733 126.673 678.648 126.836C678.564 126.992 678.521 127.158 678.521 127.334C678.521 127.516 678.557 127.682 678.629 127.832C678.701 127.975 678.827 128.102 679.01 128.213C679.179 128.33 679.413 128.438 679.713 128.535C680.019 128.633 680.403 128.721 680.865 128.799C681.51 128.916 682.099 129.059 682.633 129.229C683.167 129.398 683.622 129.606 684 129.854C684.378 130.114 684.671 130.42 684.879 130.771C685.087 131.123 685.191 131.54 685.191 132.021C685.191 132.49 685.081 132.92 684.859 133.311C684.645 133.701 684.339 134.036 683.941 134.316C683.538 134.596 683.056 134.814 682.496 134.971C681.936 135.127 681.314 135.205 680.631 135.205C679.869 135.205 679.192 135.104 678.6 134.902C678.014 134.701 677.522 134.434 677.125 134.102C676.721 133.776 676.415 133.402 676.207 132.979C675.999 132.555 675.895 132.126 675.895 131.689H678.16C678.18 132.015 678.264 132.292 678.414 132.52C678.57 132.741 678.766 132.92 679 133.057C679.228 133.2 679.488 133.304 679.781 133.369C680.074 133.428 680.37 133.457 680.67 133.457C681.074 133.457 681.425 133.415 681.725 133.33C682.031 133.245 682.275 133.132 682.457 132.988C682.607 132.871 682.717 132.744 682.789 132.607C682.867 132.464 682.906 132.308 682.906 132.139ZM688.551 124.434H694.156V133.066H697.262V135H688.551V133.066H691.803V126.377H688.551V124.434ZM691.588 121.699C691.588 121.51 691.62 121.338 691.686 121.182C691.751 121.019 691.845 120.879 691.969 120.762C692.086 120.651 692.226 120.566 692.389 120.508C692.558 120.443 692.747 120.41 692.955 120.41C693.307 120.41 693.59 120.501 693.805 120.684C694.026 120.859 694.153 121.087 694.186 121.367C694.231 121.654 694.182 121.904 694.039 122.119C693.896 122.327 693.688 122.467 693.414 122.539C693.277 122.663 693.115 122.744 692.926 122.783C692.737 122.822 692.529 122.806 692.301 122.734C692.066 122.663 691.887 122.536 691.764 122.354C691.646 122.165 691.588 121.947 691.588 121.699ZM699.723 129.639C699.723 128.838 699.82 128.109 700.016 127.451C700.211 126.787 700.494 126.217 700.865 125.742C701.236 125.267 701.682 124.899 702.203 124.639C702.73 124.372 703.323 124.238 703.98 124.238C704.371 124.238 704.726 124.281 705.045 124.365C705.364 124.443 705.654 124.561 705.914 124.717C706.083 124.814 706.243 124.932 706.393 125.068C706.542 125.199 706.682 125.342 706.812 125.498L706.91 124.434H709.029V134.707C709.029 135.417 708.912 136.045 708.678 136.592C708.45 137.145 708.128 137.614 707.711 137.998C707.288 138.376 706.78 138.662 706.188 138.857C705.602 139.059 704.954 139.16 704.244 139.16C703.945 139.16 703.616 139.128 703.258 139.062C702.9 138.997 702.542 138.896 702.184 138.76C701.826 138.623 701.484 138.444 701.158 138.223C700.833 138.001 700.553 137.734 700.318 137.422L701.422 136.006C701.611 136.234 701.812 136.429 702.027 136.592C702.249 136.761 702.473 136.898 702.701 137.002C702.929 137.106 703.16 137.181 703.395 137.227C703.629 137.279 703.867 137.305 704.107 137.305C704.524 137.305 704.892 137.246 705.211 137.129C705.536 137.012 705.813 136.842 706.041 136.621C706.249 136.406 706.409 136.143 706.52 135.83C706.637 135.518 706.695 135.163 706.695 134.766V134.033C706.559 134.176 706.415 134.31 706.266 134.434C706.122 134.557 705.966 134.665 705.797 134.756C705.543 134.899 705.263 135.007 704.957 135.078C704.651 135.156 704.319 135.195 703.961 135.195C703.31 135.195 702.724 135.062 702.203 134.795C701.682 134.521 701.236 134.144 700.865 133.662C700.501 133.187 700.217 132.624 700.016 131.973C699.82 131.315 699.723 130.605 699.723 129.844V129.639ZM702.066 129.844C702.066 130.312 702.112 130.755 702.203 131.172C702.301 131.589 702.454 131.95 702.662 132.256C702.864 132.575 703.121 132.826 703.434 133.008C703.746 133.184 704.117 133.271 704.547 133.271C704.814 133.271 705.055 133.242 705.27 133.184C705.491 133.125 705.689 133.044 705.865 132.939C706.041 132.829 706.197 132.695 706.334 132.539C706.471 132.383 706.591 132.21 706.695 132.021V127.393C706.591 127.197 706.464 127.021 706.314 126.865C706.171 126.709 706.005 126.576 705.816 126.465C705.647 126.374 705.458 126.302 705.25 126.25C705.042 126.191 704.814 126.162 704.566 126.162C704.13 126.162 703.756 126.253 703.443 126.436C703.131 126.618 702.874 126.868 702.672 127.188C702.464 127.507 702.311 127.878 702.213 128.301C702.115 128.717 702.066 129.163 702.066 129.639V129.844ZM712.037 135V124.434H714.146L714.293 125.938C714.436 125.736 714.592 125.55 714.762 125.381C714.938 125.205 715.123 125.049 715.318 124.912C715.631 124.697 715.973 124.531 716.344 124.414C716.715 124.297 717.105 124.238 717.516 124.238C718.056 124.238 718.551 124.316 719 124.473C719.449 124.629 719.833 124.876 720.152 125.215C720.471 125.553 720.719 125.986 720.895 126.514C721.07 127.035 721.158 127.666 721.158 128.408V135H718.824V128.447C718.824 128.011 718.775 127.646 718.678 127.354C718.58 127.061 718.437 126.826 718.248 126.65C718.059 126.475 717.831 126.351 717.564 126.279C717.298 126.201 716.992 126.162 716.646 126.162C716.36 126.162 716.093 126.201 715.846 126.279C715.598 126.351 715.374 126.455 715.172 126.592C715.016 126.696 714.869 126.823 714.732 126.973C714.596 127.122 714.475 127.285 714.371 127.461V135H712.037Z" fill="#FF3838"/>
<circle cx="48.5" cy="38.5" r="36" fill="#FF6B6B" fill-opacity="0.12" stroke="#FF6B6B" stroke-width="5"/>
<line x1="87" y1="36.5" x2="222" y2="36.5" stroke="#FF6B6B" stroke-width="5"/>
<path d="M51.6641 54H46.957V31.3438L39.6719 34.0195V29.8984L51.3711 25.5625H51.6641V54Z" fill="white"/>
<circle cx="260.5" cy="38.5" r="36" fill="#FF6B6B" fill-opacity="0.6" stroke="#FF6B6B" stroke-width="5"/>
<line x1="299" y1="36.5" x2="434" y2="36.5" stroke="#FF6B6B" stroke-width="5"/>
<path d="M272.133 53H253.051V49.7578L262.309 39.6797C263.077 38.8333 263.721 38.0781 264.242 37.4141C264.763 36.737 265.186 36.1185 265.512 35.5586C265.824 34.9987 266.046 34.4779 266.176 33.9961C266.319 33.5013 266.391 33.0065 266.391 32.5117C266.391 31.8477 266.293 31.2422 266.098 30.6953C265.902 30.1484 265.616 29.6797 265.238 29.2891C264.861 28.8984 264.405 28.5924 263.871 28.3711C263.35 28.1497 262.764 28.0391 262.113 28.0391C261.28 28.0391 260.557 28.1562 259.945 28.3906C259.333 28.625 258.826 28.957 258.422 29.3867C258.005 29.8424 257.693 30.3958 257.484 31.0469C257.276 31.6849 257.172 32.4141 257.172 33.2344H252.484C252.484 31.9974 252.712 30.832 253.168 29.7383C253.624 28.6315 254.275 27.668 255.121 26.8477C255.954 26.0273 256.97 25.3763 258.168 24.8945C259.379 24.4128 260.727 24.1719 262.211 24.1719C263.604 24.1719 264.848 24.3737 265.941 24.7773C267.048 25.181 267.979 25.7409 268.734 26.457C269.477 27.1732 270.043 28.0326 270.434 29.0352C270.824 30.0247 271.02 31.1185 271.02 32.3164C271.02 33.2148 270.87 34.0872 270.57 34.9336C270.284 35.7669 269.887 36.5938 269.379 37.4141C268.858 38.2344 268.24 39.0612 267.523 39.8945C266.82 40.7279 266.052 41.5872 265.219 42.4727L258.891 49.2305H272.133V53Z" fill="white"/>
<circle cx="472.5" cy="38.5" r="36" fill="#FF6B6B" fill-opacity="0.81" stroke="#FF6B6B" stroke-width="5"/>
<line x1="511" y1="36.5" x2="646" y2="36.5" stroke="#FF6B6B" stroke-width="5"/>
<path d="M468.969 37.6719H471.762C472.595 37.6719 473.324 37.5612 473.949 37.3398C474.574 37.1055 475.089 36.7799 475.492 36.3633C475.87 35.9987 476.156 35.5495 476.352 35.0156C476.56 34.4688 476.664 33.8828 476.664 33.2578C476.664 32.5807 476.566 31.9753 476.371 31.4414C476.189 30.9076 475.915 30.4518 475.551 30.0742C475.186 29.7227 474.724 29.4492 474.164 29.2539C473.617 29.0586 472.986 28.9609 472.27 28.9609C471.632 28.9609 471.039 29.0586 470.492 29.2539C469.958 29.4362 469.496 29.7031 469.105 30.0547C468.702 30.4062 468.383 30.8294 468.148 31.3242C467.927 31.819 467.816 32.3724 467.816 32.9844H463.148C463.148 31.8516 463.376 30.8099 463.832 29.8594C464.288 28.9089 464.919 28.082 465.727 27.3789C466.534 26.6888 467.484 26.1484 468.578 25.7578C469.685 25.3672 470.896 25.1719 472.211 25.1719C473.552 25.1719 474.783 25.3477 475.902 25.6992C477.035 26.0378 477.999 26.5456 478.793 27.2227C479.6 27.9128 480.225 28.7591 480.668 29.7617C481.111 30.7643 481.332 31.9297 481.332 33.2578C481.332 33.8438 481.241 34.4297 481.059 35.0156C480.889 35.6016 480.629 36.168 480.277 36.7148C479.926 37.2487 479.483 37.75 478.949 38.2188C478.415 38.6875 477.79 39.0846 477.074 39.4102C477.921 39.6966 478.637 40.0742 479.223 40.543C479.822 40.9987 480.31 41.513 480.688 42.0859C481.065 42.6719 481.339 43.3034 481.508 43.9805C481.677 44.6445 481.762 45.3346 481.762 46.0508C481.762 47.3789 481.514 48.5638 481.02 49.6055C480.538 50.6341 479.874 51.5 479.027 52.2031C478.168 52.9193 477.152 53.4661 475.98 53.8438C474.822 54.2083 473.565 54.3906 472.211 54.3906C470.987 54.3906 469.809 54.2214 468.676 53.8828C467.543 53.5443 466.547 53.0365 465.688 52.3594C464.828 51.6823 464.138 50.849 463.617 49.8594C463.109 48.8568 462.855 47.6914 462.855 46.3633H467.523C467.523 46.9883 467.634 47.5677 467.855 48.1016C468.09 48.6224 468.422 49.0651 468.852 49.4297C469.268 49.8073 469.763 50.1003 470.336 50.3086C470.922 50.5169 471.566 50.6211 472.27 50.6211C473.025 50.6211 473.702 50.5234 474.301 50.3281C474.913 50.1198 475.427 49.8138 475.844 49.4102C476.247 49.0326 476.553 48.5638 476.762 48.0039C476.983 47.431 477.094 46.7799 477.094 46.0508C477.094 45.2305 476.97 44.5273 476.723 43.9414C476.475 43.3555 476.117 42.8672 475.648 42.4766C475.18 42.099 474.613 41.819 473.949 41.6367C473.298 41.4414 472.569 41.3438 471.762 41.3438H468.969V37.6719Z" fill="white"/>
<circle cx="684.5" cy="38.5" r="36" fill="#FF6B6B" stroke="#FF6B6B" stroke-width="5"/>
<path d="M690.379 43.8633H693.953V47.6523H690.379V54H685.711V47.6523H673.406L673.289 44.7812L685.574 25.5625H690.379V43.8633ZM678.055 43.8633H685.711V31.8125L685.164 32.8281L678.055 43.8633Z" fill="white"/>
<path d="M1.80664 94.7812H10.1855V96.7246H7.14844V107.066H10.1855V109H1.80664V107.066H4.77539V96.7246H1.80664V94.7812ZM13.2129 103.639C13.2129 102.838 13.3073 102.109 13.4961 101.451C13.6914 100.787 13.9714 100.217 14.3359 99.7422C14.694 99.2669 15.1302 98.8991 15.6445 98.6387C16.1654 98.3717 16.7513 98.2383 17.4023 98.2383C17.9883 98.2383 18.4993 98.3424 18.9355 98.5508C19.3783 98.7526 19.7689 99.0423 20.1074 99.4199V94H22.4414V109H20.3223L20.2148 107.896C19.8763 108.313 19.4727 108.635 19.0039 108.863C18.5352 109.085 17.9948 109.195 17.3828 109.195C16.7383 109.195 16.1589 109.062 15.6445 108.795C15.1302 108.521 14.694 108.144 14.3359 107.662C13.9779 107.187 13.7012 106.624 13.5059 105.973C13.3105 105.315 13.2129 104.605 13.2129 103.844V103.639ZM15.5469 103.844C15.5469 104.312 15.5924 104.755 15.6836 105.172C15.7747 105.589 15.918 105.95 16.1133 106.256C16.3086 106.575 16.5592 106.826 16.8652 107.008C17.1712 107.184 17.5391 107.271 17.9688 107.271C18.4961 107.271 18.9323 107.158 19.2773 106.93C19.6224 106.695 19.8991 106.38 20.1074 105.982V101.441C19.8991 101.051 19.6224 100.742 19.2773 100.514C18.9388 100.279 18.5091 100.162 17.9883 100.162C17.5521 100.162 17.1777 100.253 16.8652 100.436C16.5592 100.618 16.3118 100.868 16.123 101.188C15.9212 101.507 15.7747 101.878 15.6836 102.301C15.5924 102.717 15.5469 103.163 15.5469 103.639V103.844ZM30.4688 109.195C29.6875 109.195 28.9714 109.065 28.3203 108.805C27.6758 108.544 27.1224 108.183 26.6602 107.721C26.1979 107.265 25.8398 106.728 25.5859 106.109C25.3385 105.484 25.2148 104.811 25.2148 104.088V103.688C25.2148 102.861 25.3451 102.112 25.6055 101.441C25.8659 100.771 26.224 100.198 26.6797 99.7227C27.1354 99.2474 27.6628 98.8828 28.2617 98.6289C28.8672 98.3685 29.5117 98.2383 30.1953 98.2383C30.957 98.2383 31.6309 98.3685 32.2168 98.6289C32.8027 98.8828 33.2943 99.2376 33.6914 99.6934C34.0885 100.156 34.388 100.706 34.5898 101.344C34.7917 101.982 34.8926 102.678 34.8926 103.434V104.439H27.5684V104.488C27.64 104.951 27.7507 105.338 27.9004 105.65C28.0501 105.963 28.2552 106.243 28.5156 106.49C28.776 106.751 29.082 106.952 29.4336 107.096C29.7917 107.239 30.1823 107.311 30.6055 107.311C31.1849 107.311 31.7253 107.2 32.2266 106.979C32.7279 106.751 33.1413 106.428 33.4668 106.012L34.7168 107.223C34.3652 107.73 33.8249 108.186 33.0957 108.59C32.373 108.993 31.4974 109.195 30.4688 109.195ZM30.1855 100.133C29.8535 100.133 29.5443 100.195 29.2578 100.318C28.9779 100.436 28.7272 100.605 28.5059 100.826C28.2845 101.054 28.099 101.327 27.9492 101.646C27.7995 101.965 27.6888 102.327 27.6172 102.73H32.5879V102.574C32.5879 102.268 32.5326 101.965 32.4219 101.666C32.3112 101.36 32.1549 101.093 31.9531 100.865C31.7578 100.644 31.5104 100.468 31.2109 100.338C30.918 100.201 30.5762 100.133 30.1855 100.133ZM44.2969 109C44.2253 108.87 44.1667 108.714 44.1211 108.531C44.082 108.342 44.0462 108.147 44.0137 107.945C43.8509 108.115 43.6654 108.277 43.457 108.434C43.2552 108.583 43.0273 108.714 42.7734 108.824C42.5195 108.941 42.2461 109.033 41.9531 109.098C41.6602 109.163 41.3444 109.195 41.0059 109.195C40.459 109.195 39.9577 109.117 39.502 108.961C39.0527 108.798 38.6686 108.577 38.3496 108.297C38.0241 108.023 37.7702 107.695 37.5879 107.311C37.4121 106.92 37.3242 106.5 37.3242 106.051C37.3242 105.471 37.4382 104.96 37.666 104.518C37.9004 104.068 38.2389 103.697 38.6816 103.404C39.0918 103.131 39.5964 102.923 40.1953 102.779C40.8008 102.636 41.4844 102.564 42.2461 102.564H43.9453V101.852C43.9453 101.578 43.8965 101.331 43.7988 101.109C43.7077 100.888 43.5742 100.696 43.3984 100.533C43.2096 100.37 42.9785 100.247 42.7051 100.162C42.4382 100.071 42.1289 100.025 41.7773 100.025C41.4583 100.025 41.1784 100.064 40.9375 100.143C40.7031 100.221 40.5078 100.328 40.3516 100.465C40.1953 100.589 40.0781 100.742 40 100.924C39.9284 101.1 39.8926 101.288 39.8926 101.49H37.5488C37.5553 101.067 37.6562 100.66 37.8516 100.27C38.0469 99.8789 38.3333 99.5339 38.7109 99.2344C39.0755 98.9284 39.5247 98.6875 40.0586 98.5117C40.599 98.3294 41.2142 98.2383 41.9043 98.2383C42.5228 98.2383 43.099 98.3164 43.6328 98.4727C44.1732 98.6224 44.6387 98.847 45.0293 99.1465C45.4199 99.446 45.7259 99.8268 45.9473 100.289C46.1686 100.745 46.2793 101.272 46.2793 101.871V106.568C46.2793 107.044 46.3118 107.473 46.377 107.857C46.4486 108.235 46.5495 108.561 46.6797 108.834V109H44.2969ZM41.4551 107.32C41.7611 107.32 42.0443 107.281 42.3047 107.203C42.5716 107.125 42.8125 107.024 43.0273 106.9C43.2422 106.777 43.4277 106.637 43.584 106.48C43.7402 106.324 43.8607 106.161 43.9453 105.992V104.039H42.4414C41.9336 104.039 41.4941 104.088 41.123 104.186C40.752 104.277 40.4557 104.41 40.2344 104.586C40.0391 104.736 39.8926 104.915 39.7949 105.123C39.7038 105.331 39.6582 105.566 39.6582 105.826C39.6582 106.041 39.6973 106.243 39.7754 106.432C39.8535 106.614 39.9674 106.77 40.1172 106.9C40.2669 107.031 40.4525 107.135 40.6738 107.213C40.8952 107.285 41.1556 107.32 41.4551 107.32ZM54.248 95.8555V98.4336H58.2227V100.182H54.248V105.23C54.248 105.621 54.2936 105.95 54.3848 106.217C54.4824 106.477 54.6159 106.682 54.7852 106.832C54.9544 106.988 55.1562 107.099 55.3906 107.164C55.625 107.229 55.8822 107.262 56.1621 107.262C56.3639 107.262 56.5723 107.252 56.7871 107.232C57.002 107.213 57.2103 107.187 57.4121 107.154C57.6074 107.128 57.7897 107.099 57.959 107.066C58.1348 107.027 58.2812 106.995 58.3984 106.969L58.6523 108.58C58.4831 108.684 58.278 108.775 58.0371 108.854C57.8027 108.925 57.5488 108.987 57.2754 109.039C57.002 109.091 56.7155 109.13 56.416 109.156C56.123 109.189 55.8301 109.205 55.5371 109.205C55.0033 109.205 54.5117 109.133 54.0625 108.99C53.6198 108.84 53.2389 108.609 52.9199 108.297C52.6009 107.991 52.3503 107.597 52.168 107.115C51.9922 106.633 51.9043 106.054 51.9043 105.377V100.182H49.3457V98.4336H51.9043V95.8555H54.248ZM62.1094 98.4336H67.7148V107.066H70.8203V109H62.1094V107.066H65.3613V100.377H62.1094V98.4336ZM65.1465 95.6992C65.1465 95.5104 65.179 95.3379 65.2441 95.1816C65.3092 95.0189 65.4036 94.8789 65.5273 94.7617C65.6445 94.651 65.7845 94.5664 65.9473 94.5078C66.1165 94.4427 66.3053 94.4102 66.5137 94.4102C66.8652 94.4102 67.1484 94.5013 67.3633 94.6836C67.5846 94.8594 67.7116 95.0872 67.7441 95.3672C67.7897 95.6536 67.7409 95.9043 67.5977 96.1191C67.4544 96.3275 67.2461 96.4674 66.9727 96.5391C66.8359 96.6628 66.6732 96.7441 66.4844 96.7832C66.2956 96.8223 66.0872 96.806 65.8594 96.7344C65.625 96.6628 65.446 96.5358 65.3223 96.3535C65.2051 96.1647 65.1465 95.9466 65.1465 95.6992ZM73.1543 103.619C73.1543 102.851 73.265 102.141 73.4863 101.49C73.7077 100.833 74.0299 100.263 74.4531 99.7812C74.8698 99.2995 75.3809 98.9219 75.9863 98.6484C76.5918 98.375 77.2819 98.2383 78.0566 98.2383C78.8314 98.2383 79.5215 98.375 80.127 98.6484C80.7389 98.9219 81.2565 99.2995 81.6797 99.7812C82.0964 100.263 82.4154 100.833 82.6367 101.49C82.8581 102.141 82.9688 102.851 82.9688 103.619V103.824C82.9688 104.599 82.8581 105.312 82.6367 105.963C82.4154 106.614 82.0964 107.18 81.6797 107.662C81.263 108.144 80.7487 108.521 80.1367 108.795C79.5312 109.068 78.8444 109.205 78.0762 109.205C77.3014 109.205 76.6081 109.068 75.9961 108.795C75.3841 108.521 74.8698 108.144 74.4531 107.662C74.0299 107.18 73.7077 106.614 73.4863 105.963C73.265 105.312 73.1543 104.599 73.1543 103.824V103.619ZM75.4883 103.824C75.4883 104.299 75.5371 104.749 75.6348 105.172C75.7389 105.595 75.8984 105.966 76.1133 106.285C76.3216 106.604 76.5885 106.858 76.9141 107.047C77.2396 107.229 77.627 107.32 78.0762 107.32C78.5124 107.32 78.8932 107.229 79.2188 107.047C79.5443 106.858 79.8112 106.604 80.0195 106.285C80.2279 105.966 80.3809 105.595 80.4785 105.172C80.5827 104.749 80.6348 104.299 80.6348 103.824V103.619C80.6348 103.157 80.5827 102.714 80.4785 102.291C80.3743 101.868 80.2214 101.497 80.0195 101.178C79.8047 100.859 79.5345 100.605 79.209 100.416C78.89 100.227 78.5059 100.133 78.0566 100.133C77.6139 100.133 77.2298 100.227 76.9043 100.416C76.5853 100.605 76.3216 100.859 76.1133 101.178C75.8984 101.497 75.7389 101.868 75.6348 102.291C75.5371 102.714 75.4883 103.157 75.4883 103.619V103.824ZM85.5957 109V98.4336H87.7051L87.8516 99.9375C87.9948 99.7357 88.151 99.5501 88.3203 99.3809C88.4961 99.2051 88.6816 99.0488 88.877 98.9121C89.1895 98.6973 89.5312 98.5312 89.9023 98.4141C90.2734 98.2969 90.6641 98.2383 91.0742 98.2383C91.6146 98.2383 92.1094 98.3164 92.5586 98.4727C93.0078 98.6289 93.3919 98.8763 93.7109 99.2148C94.0299 99.5534 94.2773 99.9863 94.4531 100.514C94.6289 101.035 94.7168 101.666 94.7168 102.408V109H92.3828V102.447C92.3828 102.011 92.334 101.646 92.2363 101.354C92.1387 101.061 91.9954 100.826 91.8066 100.65C91.6178 100.475 91.39 100.351 91.123 100.279C90.8561 100.201 90.5501 100.162 90.2051 100.162C89.9186 100.162 89.6517 100.201 89.4043 100.279C89.1569 100.351 88.9323 100.455 88.7305 100.592C88.5742 100.696 88.4277 100.823 88.291 100.973C88.1543 101.122 88.0339 101.285 87.9297 101.461V109H85.5957Z" fill="#FF3838"/>
</svg>
