<svg width="2136" height="1002" viewBox="0 0 2136 1002" fill="none" xmlns="http://www.w3.org/2000/svg">
<path fill-rule="evenodd" clip-rule="evenodd" d="M817.628 619.769C815.706 622.1 813.663 624.242 811.53 626.187C836.403 630.29 854.4 647.178 852.018 664.538C849.577 682.331 826.654 693.882 800.817 690.338C798.985 690.087 797.187 689.766 795.428 689.381C789.706 715.337 771.912 733.542 754.416 730.613C737.573 727.792 726.85 706.364 728.79 681.213C707.126 688.651 686.021 684.722 678.578 670.654C669.928 654.303 682.984 630.402 707.766 617.041C707.087 616.333 706.417 615.605 705.758 614.859C688.492 595.315 684.857 570.317 697.64 559.024C710.422 547.732 734.781 554.422 752.047 573.966C755.464 577.833 758.347 581.915 760.675 586.061C762.342 583.176 764.296 580.352 766.532 577.639C782.529 558.238 806.935 551.942 821.045 563.576C835.154 575.209 833.625 600.368 817.628 619.769Z" fill="#F4ACB7"/>
<circle cx="765.113" cy="635.479" r="22.2474" transform="rotate(39.5063 765.113 635.479)" fill="#FFF2F2"/>
<path fill-rule="evenodd" clip-rule="evenodd" d="M1762.63 619.769C1760.71 622.1 1758.66 624.242 1756.53 626.187C1781.4 630.29 1799.4 647.178 1797.02 664.538C1794.58 682.331 1771.65 693.882 1745.82 690.338C1743.98 690.087 1742.19 689.766 1740.43 689.381C1734.7 715.337 1716.91 733.542 1699.41 730.613C1682.57 727.792 1671.85 706.364 1673.79 681.213C1652.12 688.651 1631.02 684.722 1623.58 670.654C1614.93 654.303 1627.98 630.402 1652.76 617.041C1652.09 616.333 1651.42 615.605 1650.76 614.859C1633.49 595.315 1629.86 570.317 1642.64 559.024C1655.42 547.732 1679.78 554.422 1697.05 573.966C1700.46 577.833 1703.35 581.915 1705.67 586.061C1707.34 583.176 1709.29 580.352 1711.53 577.639C1727.53 558.238 1751.93 551.942 1766.04 563.576C1780.15 575.209 1778.62 600.368 1762.63 619.769Z" fill="#C5E6A6"/>
<circle cx="1710.11" cy="635.479" r="22.2474" transform="rotate(39.5063 1710.11 635.479)" fill="#FFF2F2"/>
<path fill-rule="evenodd" clip-rule="evenodd" d="M2061.12 620.054C2059.2 622.385 2057.15 624.527 2055.02 626.471C2079.89 630.575 2097.89 647.463 2095.51 664.823C2093.07 682.616 2070.14 694.167 2044.31 690.623C2042.47 690.371 2040.68 690.051 2038.92 689.666C2033.2 715.621 2015.4 733.827 1997.91 730.897C1981.06 728.077 1970.34 706.649 1972.28 681.498C1950.62 688.936 1929.51 685.007 1922.07 670.939C1913.42 654.588 1926.47 630.687 1951.26 617.326C1950.58 616.618 1949.91 615.89 1949.25 615.144C1931.98 595.6 1928.35 570.602 1941.13 559.309C1953.91 548.017 1978.27 554.706 1995.54 574.25C1998.95 578.118 2001.84 582.199 2004.16 586.346C2005.83 583.461 2007.79 580.636 2010.02 577.924C2026.02 558.523 2050.43 552.226 2064.53 563.86C2078.64 575.494 2077.12 600.653 2061.12 620.054Z" fill="#F4ACB7"/>
<circle cx="2008.6" cy="635.763" r="22.2474" transform="rotate(39.5063 2008.6 635.763)" fill="#FFF2F2"/>
<path fill-rule="evenodd" clip-rule="evenodd" d="M183.806 619.769C181.884 622.1 179.841 624.242 177.708 626.187C202.581 630.29 220.577 647.179 218.196 664.538C215.755 682.331 192.831 693.882 166.995 690.338C165.162 690.087 163.364 689.766 161.606 689.381C155.884 715.337 138.09 733.542 120.594 730.613C103.751 727.792 93.0281 706.364 94.9673 681.213C73.3033 688.651 52.1982 684.722 44.7556 670.654C36.1056 654.303 49.162 630.402 73.9433 617.042C73.2644 616.333 72.5948 615.606 71.9356 614.859C54.6696 595.315 51.035 570.317 63.8174 559.025C76.5999 547.732 100.959 554.422 118.225 573.966C121.642 577.834 124.525 581.915 126.852 586.062C128.52 583.177 130.474 580.352 132.71 577.639C148.707 558.238 173.113 551.942 187.223 563.576C201.332 575.21 199.803 600.368 183.806 619.769Z" fill="#F4ACB7"/>
<circle cx="131.289" cy="635.479" r="22.2474" transform="rotate(39.5063 131.289 635.479)" fill="#FFF2F2"/>
<path fill-rule="evenodd" clip-rule="evenodd" d="M1128.81 619.769C1126.88 622.1 1124.84 624.242 1122.71 626.187C1147.58 630.29 1165.58 647.179 1163.19 664.538C1160.75 682.331 1137.83 693.882 1111.99 690.338C1110.16 690.087 1108.36 689.766 1106.61 689.381C1100.88 715.337 1083.09 733.542 1065.59 730.613C1048.75 727.792 1038.03 706.364 1039.97 681.213C1018.3 688.651 997.197 684.722 989.755 670.654C981.105 654.303 994.161 630.402 1018.94 617.042C1018.26 616.333 1017.59 615.606 1016.93 614.859C999.669 595.315 996.034 570.317 1008.82 559.025C1021.6 547.732 1045.96 554.422 1063.22 573.966C1066.64 577.834 1069.52 581.915 1071.85 586.062C1073.52 583.177 1075.47 580.352 1077.71 577.639C1093.71 558.238 1118.11 551.942 1132.22 563.576C1146.33 575.21 1144.8 600.368 1128.81 619.769Z" fill="#C5E6A6"/>
<circle cx="1076.29" cy="635.479" r="22.2474" transform="rotate(39.5063 1076.29 635.479)" fill="#FFF2F2"/>
<path fill-rule="evenodd" clip-rule="evenodd" d="M500.717 619.769C498.795 622.1 496.752 624.242 494.619 626.187C519.492 630.29 537.488 647.179 535.107 664.538C532.666 682.331 509.742 693.882 483.906 690.338C482.073 690.087 480.276 689.766 478.517 689.381C472.795 715.337 455.001 733.542 437.505 730.613C420.662 727.792 409.939 706.364 411.878 681.213C390.214 688.651 369.109 684.722 361.667 670.654C353.017 654.303 366.073 630.402 390.854 617.042C390.176 616.333 389.506 615.606 388.847 614.859C371.581 595.315 367.946 570.317 380.729 559.025C393.511 547.732 417.87 554.422 435.136 573.966C438.553 577.834 441.436 581.915 443.764 586.062C445.431 583.177 447.385 580.352 449.621 577.639C465.618 558.238 490.024 551.942 504.134 563.576C518.243 575.21 516.714 600.368 500.717 619.769Z" fill="#C5E6A6"/>
<circle cx="448.201" cy="635.479" r="22.2474" transform="rotate(39.5063 448.201 635.479)" fill="#FFF2F2"/>
<path fill-rule="evenodd" clip-rule="evenodd" d="M1445.72 619.769C1443.79 622.1 1441.75 624.242 1439.62 626.187C1464.49 630.29 1482.49 647.179 1480.11 664.538C1477.66 682.331 1454.74 693.882 1428.9 690.338C1427.07 690.087 1425.27 689.766 1423.52 689.381C1417.79 715.337 1400 733.542 1382.5 730.613C1365.66 727.792 1354.94 706.364 1356.88 681.213C1335.21 688.651 1314.11 684.722 1306.67 670.654C1298.02 654.303 1311.07 630.402 1335.85 617.042C1335.17 616.333 1334.5 615.606 1333.85 614.859C1316.58 595.315 1312.95 570.317 1325.73 559.025C1338.51 547.732 1362.87 554.422 1380.13 573.966C1383.55 577.834 1386.43 581.915 1388.76 586.062C1390.43 583.177 1392.38 580.352 1394.62 577.639C1410.62 558.238 1435.02 551.942 1449.13 563.576C1463.24 575.21 1461.71 600.368 1445.72 619.769Z" fill="#F4ACB7"/>
<circle cx="1393.2" cy="635.479" r="22.2474" transform="rotate(39.5063 1393.2 635.479)" fill="#FFF2F2"/>
<path fill-rule="evenodd" clip-rule="evenodd" d="M1762.63 851.769C1760.71 854.101 1758.66 856.243 1756.53 858.187C1781.4 862.29 1799.4 879.179 1797.02 896.539C1794.58 914.332 1771.65 925.882 1745.82 922.338C1743.98 922.087 1742.19 921.766 1740.43 921.381C1734.7 947.337 1716.91 965.543 1699.41 962.613C1682.57 959.792 1671.85 938.365 1673.79 913.213C1652.12 920.651 1631.02 916.723 1623.58 902.654C1614.93 886.303 1627.98 862.402 1652.76 849.042C1652.09 848.333 1651.42 847.606 1650.76 846.859C1633.49 827.315 1629.86 802.317 1642.64 791.025C1655.42 779.732 1679.78 786.422 1697.05 805.966C1700.46 809.834 1703.35 813.915 1705.67 818.061C1707.34 815.177 1709.29 812.352 1711.53 809.639C1727.53 790.238 1751.93 783.942 1766.04 795.576C1780.15 807.21 1778.62 832.368 1762.63 851.769Z" fill="#F4ACB7"/>
<circle cx="1710.11" cy="867.479" r="22.2474" transform="rotate(39.5063 1710.11 867.479)" fill="#FFF2F2"/>
<path fill-rule="evenodd" clip-rule="evenodd" d="M2061.12 852.054C2059.2 854.385 2057.15 856.527 2055.02 858.472C2079.89 862.575 2097.89 879.463 2095.51 896.823C2093.07 914.616 2070.14 926.167 2044.31 922.623C2042.47 922.371 2040.68 922.051 2038.92 921.666C2033.2 947.622 2015.4 965.827 1997.91 962.897C1981.06 960.077 1970.34 938.649 1972.28 913.498C1950.62 920.936 1929.51 917.007 1922.07 902.939C1913.42 886.588 1926.47 862.687 1951.26 849.326C1950.58 848.618 1949.91 847.89 1949.25 847.144C1931.98 827.6 1928.35 802.602 1941.13 791.309C1953.91 780.017 1978.27 786.706 1995.54 806.251C1998.95 810.118 2001.84 814.2 2004.16 818.346C2005.83 815.461 2007.79 812.636 2010.02 809.924C2026.02 790.523 2050.43 784.227 2064.53 795.86C2078.64 807.494 2077.12 832.653 2061.12 852.054Z" fill="#A7A5E8"/>
<circle cx="2008.6" cy="867.763" r="22.2474" transform="rotate(39.5063 2008.6 867.763)" fill="#FFF2F2"/>
<path fill-rule="evenodd" clip-rule="evenodd" d="M183.805 851.769C181.883 854.101 179.84 856.243 177.707 858.187C202.58 862.291 220.576 879.179 218.195 896.539C215.754 914.332 192.83 925.883 166.994 922.338C165.161 922.087 163.363 921.766 161.605 921.381C155.883 947.337 138.089 965.543 120.593 962.613C103.75 959.792 93.0271 938.365 94.9664 913.213C73.3024 920.652 52.1972 916.723 44.7546 902.654C36.1046 886.304 49.1611 862.402 73.9424 849.042C73.2635 848.333 72.5939 847.606 71.9346 846.859C54.6686 827.315 51.034 802.317 63.8164 791.025C76.5989 779.732 100.958 786.422 118.224 805.966C121.641 809.834 124.524 813.915 126.851 818.062C128.519 815.177 130.473 812.352 132.709 809.64C148.706 790.239 173.112 783.942 187.222 795.576C201.331 807.21 199.802 832.368 183.805 851.769Z" fill="#A7A5E8"/>
<circle cx="131.288" cy="867.479" r="22.2474" transform="rotate(39.5063 131.288 867.479)" fill="#FFF2F2"/>
<path fill-rule="evenodd" clip-rule="evenodd" d="M822.805 864.769C820.883 867.1 818.84 869.242 816.707 871.187C841.58 875.29 859.576 892.179 857.195 909.538C854.754 927.331 831.83 938.882 805.994 935.338C804.161 935.087 802.363 934.766 800.605 934.381C794.883 960.337 777.089 978.542 759.593 975.613C742.75 972.792 732.027 951.364 733.966 926.213C712.302 933.651 691.197 929.722 683.755 915.654C675.105 899.303 688.161 875.402 712.942 862.042C712.263 861.333 711.594 860.606 710.935 859.859C693.669 840.315 690.034 815.317 702.816 804.025C715.599 792.732 739.958 799.422 757.224 818.966C760.641 822.834 763.524 826.915 765.851 831.062C767.519 828.177 769.473 825.352 771.709 822.639C787.706 803.238 812.112 796.942 826.222 808.576C840.331 820.21 838.802 845.368 822.805 864.769Z" fill="#A7A5E8"/>
<circle cx="770.289" cy="880.479" r="22.2474" transform="rotate(39.5063 770.289 880.479)" fill="#FFF2F2"/>
<path fill-rule="evenodd" clip-rule="evenodd" d="M1135.81 864.769C1133.88 867.1 1131.84 869.242 1129.71 871.187C1154.58 875.29 1172.58 892.179 1170.2 909.538C1167.75 927.331 1144.83 938.882 1118.99 935.338C1117.16 935.087 1115.36 934.766 1113.61 934.381C1107.88 960.337 1090.09 978.542 1072.59 975.613C1055.75 972.792 1045.03 951.364 1046.97 926.213C1025.3 933.651 1004.2 929.722 996.756 915.654C988.106 899.303 1001.16 875.402 1025.94 862.042C1025.26 861.333 1024.59 860.606 1023.94 859.859C1006.67 840.315 1003.03 815.317 1015.82 804.025C1028.6 792.732 1052.96 799.422 1070.22 818.966C1073.64 822.834 1076.52 826.915 1078.85 831.062C1080.52 828.177 1082.47 825.352 1084.71 822.639C1100.71 803.238 1125.11 796.942 1139.22 808.576C1153.33 820.21 1151.8 845.368 1135.81 864.769Z" fill="#F4ACB7"/>
<circle cx="1083.29" cy="880.479" r="22.2474" transform="rotate(39.5063 1083.29 880.479)" fill="#FFF2F2"/>
<path fill-rule="evenodd" clip-rule="evenodd" d="M1463.81 863.769C1461.88 866.1 1459.84 868.242 1457.71 870.187C1482.58 874.29 1500.58 891.179 1498.2 908.538C1495.75 926.331 1472.83 937.882 1446.99 934.338C1445.16 934.087 1443.36 933.766 1441.61 933.381C1435.88 959.337 1418.09 977.542 1400.59 974.613C1383.75 971.792 1373.03 950.364 1374.97 925.213C1353.3 932.651 1332.2 928.722 1324.76 914.654C1316.11 898.303 1329.16 874.402 1353.94 861.042C1353.26 860.333 1352.59 859.606 1351.94 858.859C1334.67 839.315 1331.03 814.317 1343.82 803.025C1356.6 791.732 1380.96 798.422 1398.22 817.966C1401.64 821.834 1404.52 825.915 1406.85 830.062C1408.52 827.177 1410.47 824.352 1412.71 821.639C1428.71 802.238 1453.11 795.942 1467.22 807.576C1481.33 819.21 1479.8 844.368 1463.81 863.769Z" fill="#A7A5E8"/>
<circle cx="1411.29" cy="879.479" r="22.2474" transform="rotate(39.5063 1411.29 879.479)" fill="#FFF2F2"/>
<path fill-rule="evenodd" clip-rule="evenodd" d="M500.717 851.769C498.795 854.101 496.752 856.243 494.619 858.187C519.492 862.291 537.488 879.179 535.107 896.539C532.666 914.332 509.742 925.883 483.906 922.338C482.073 922.087 480.276 921.766 478.517 921.381C472.795 947.337 455.001 965.543 437.505 962.613C420.662 959.792 409.939 938.365 411.878 913.213C390.214 920.652 369.109 916.723 361.667 902.654C353.017 886.304 366.073 862.402 390.854 849.042C390.176 848.333 389.506 847.606 388.847 846.859C371.581 827.315 367.946 802.317 380.729 791.025C393.511 779.732 417.87 786.422 435.136 805.966C438.553 809.834 441.436 813.915 443.764 818.062C445.431 815.177 447.385 812.352 449.621 809.64C465.618 790.239 490.024 783.942 504.134 795.576C518.243 807.21 516.714 832.368 500.717 851.769Z" fill="#F4ACB7"/>
<circle cx="448.201" cy="867.479" r="22.2474" transform="rotate(39.5063 448.201 867.479)" fill="#FFF2F2"/>
<path fill-rule="evenodd" clip-rule="evenodd" d="M817.628 118.769C815.706 121.1 813.663 123.242 811.53 125.187C836.403 129.29 854.4 146.178 852.018 163.538C849.577 181.331 826.654 192.882 800.817 189.338C798.985 189.087 797.187 188.766 795.428 188.381C789.706 214.337 771.912 232.542 754.416 229.613C737.573 226.792 726.85 205.364 728.79 180.213C707.126 187.651 686.021 183.722 678.578 169.654C669.928 153.303 682.984 129.402 707.766 116.041C707.087 115.333 706.417 114.605 705.758 113.859C688.492 94.3149 684.857 69.3169 697.64 58.0245C710.422 46.7321 734.781 53.4216 752.047 72.9658C755.464 76.8335 758.347 80.9147 760.675 85.0611C762.342 82.1764 764.296 79.3515 766.532 76.6392C782.529 57.2382 806.935 50.9417 821.045 62.5755C835.154 74.2094 833.625 99.3681 817.628 118.769Z" fill="#F4ACB7"/>
<circle cx="765.113" cy="134.479" r="22.2474" transform="rotate(39.5063 765.113 134.479)" fill="#FFF2F2"/>
<path fill-rule="evenodd" clip-rule="evenodd" d="M1762.63 118.769C1760.71 121.1 1758.66 123.242 1756.53 125.187C1781.4 129.29 1799.4 146.178 1797.02 163.538C1794.58 181.331 1771.65 192.882 1745.82 189.338C1743.98 189.087 1742.19 188.766 1740.43 188.381C1734.7 214.337 1716.91 232.542 1699.41 229.613C1682.57 226.792 1671.85 205.364 1673.79 180.213C1652.12 187.651 1631.02 183.722 1623.58 169.654C1614.93 153.303 1627.98 129.402 1652.76 116.041C1652.09 115.333 1651.42 114.605 1650.76 113.859C1633.49 94.3149 1629.86 69.3169 1642.64 58.0245C1655.42 46.7321 1679.78 53.4216 1697.05 72.9658C1700.46 76.8335 1703.35 80.9147 1705.67 85.0611C1707.34 82.1764 1709.29 79.3515 1711.53 76.6392C1727.53 57.2382 1751.93 50.9417 1766.04 62.5755C1780.15 74.2094 1778.62 99.3681 1762.63 118.769Z" fill="#F4ACB7"/>
<circle cx="1710.11" cy="134.479" r="22.2474" transform="rotate(39.5063 1710.11 134.479)" fill="#FFF2F2"/>
<path fill-rule="evenodd" clip-rule="evenodd" d="M2061.12 119.054C2059.2 121.385 2057.15 123.527 2055.02 125.471C2079.89 129.575 2097.89 146.463 2095.51 163.823C2093.07 181.616 2070.14 193.167 2044.31 189.623C2042.47 189.371 2040.68 189.051 2038.92 188.666C2033.2 214.621 2015.4 232.827 1997.91 229.897C1981.06 227.077 1970.34 205.649 1972.28 180.498C1950.62 187.936 1929.51 184.007 1922.07 169.939C1913.42 153.588 1926.47 129.687 1951.26 116.326C1950.58 115.618 1949.91 114.89 1949.25 114.144C1931.98 94.5995 1928.35 69.6015 1941.13 58.3092C1953.91 47.0168 1978.27 53.7062 1995.54 73.2505C1998.95 77.1181 2001.84 81.1994 2004.16 85.3458C2005.83 82.4611 2007.79 79.6362 2010.02 76.9239C2026.02 57.5229 2050.43 51.2264 2064.53 62.8602C2078.64 74.494 2077.12 99.6527 2061.12 119.054Z" fill="#F4ACB7"/>
<circle cx="2008.6" cy="134.763" r="22.2474" transform="rotate(39.5063 2008.6 134.763)" fill="#FFF2F2"/>
<path fill-rule="evenodd" clip-rule="evenodd" d="M183.806 118.769C181.884 121.1 179.841 123.242 177.708 125.187C202.581 129.29 220.577 146.179 218.196 163.538C215.755 181.331 192.831 192.882 166.995 189.338C165.162 189.087 163.364 188.766 161.606 188.381C155.884 214.337 138.09 232.542 120.594 229.613C103.751 226.792 93.0281 205.364 94.9673 180.213C73.3033 187.651 52.1982 183.722 44.7556 169.654C36.1056 153.303 49.162 129.402 73.9433 116.042C73.2644 115.333 72.5948 114.606 71.9356 113.859C54.6696 94.315 51.035 69.317 63.8174 58.0246C76.5999 46.7323 100.959 53.4217 118.225 72.9659C121.642 76.8337 124.525 80.9151 126.852 85.0615C128.52 82.1767 130.474 79.3518 132.71 76.6394C148.707 57.2384 173.113 50.9419 187.223 62.5757C201.332 74.2095 199.803 99.3682 183.806 118.769Z" fill="#F4ACB7"/>
<circle cx="131.289" cy="134.479" r="22.2474" transform="rotate(39.5063 131.289 134.479)" fill="#FFF2F2"/>
<path fill-rule="evenodd" clip-rule="evenodd" d="M1128.81 118.769C1126.88 121.1 1124.84 123.242 1122.71 125.187C1147.58 129.29 1165.58 146.179 1163.19 163.538C1160.75 181.331 1137.83 192.882 1111.99 189.338C1110.16 189.087 1108.36 188.766 1106.61 188.381C1100.88 214.337 1083.09 232.542 1065.59 229.613C1048.75 226.792 1038.03 205.364 1039.97 180.213C1018.3 187.651 997.197 183.722 989.755 169.654C981.105 153.303 994.161 129.402 1018.94 116.042C1018.26 115.333 1017.59 114.606 1016.93 113.859C999.669 94.315 996.034 69.317 1008.82 58.0246C1021.6 46.7323 1045.96 53.4217 1063.22 72.9659C1066.64 76.8337 1069.52 80.9151 1071.85 85.0615C1073.52 82.1767 1075.47 79.3518 1077.71 76.6394C1093.71 57.2384 1118.11 50.9419 1132.22 62.5757C1146.33 74.2095 1144.8 99.3682 1128.81 118.769Z" fill="#F4ACB7"/>
<circle cx="1076.29" cy="134.479" r="22.2474" transform="rotate(39.5063 1076.29 134.479)" fill="#FFF2F2"/>
<path fill-rule="evenodd" clip-rule="evenodd" d="M500.717 118.769C498.795 121.1 496.752 123.242 494.619 125.187C519.492 129.29 537.488 146.179 535.107 163.538C532.666 181.331 509.742 192.882 483.906 189.338C482.073 189.087 480.276 188.766 478.517 188.381C472.795 214.337 455.001 232.542 437.505 229.613C420.662 226.792 409.939 205.364 411.878 180.213C390.214 187.651 369.109 183.722 361.667 169.654C353.017 153.303 366.073 129.402 390.854 116.042C390.176 115.333 389.506 114.606 388.847 113.859C371.581 94.315 367.946 69.317 380.729 58.0246C393.511 46.7323 417.87 53.4217 435.136 72.9659C438.553 76.8337 441.436 80.9151 443.764 85.0615C445.431 82.1767 447.385 79.3518 449.621 76.6394C465.618 57.2384 490.024 50.9419 504.134 62.5757C518.243 74.2095 516.714 99.3682 500.717 118.769Z" fill="#F4ACB7"/>
<circle cx="448.201" cy="134.479" r="22.2474" transform="rotate(39.5063 448.201 134.479)" fill="#FFF2F2"/>
<path fill-rule="evenodd" clip-rule="evenodd" d="M1445.72 118.769C1443.79 121.1 1441.75 123.242 1439.62 125.187C1464.49 129.29 1482.49 146.179 1480.11 163.538C1477.66 181.331 1454.74 192.882 1428.9 189.338C1427.07 189.087 1425.27 188.766 1423.52 188.381C1417.79 214.337 1400 232.542 1382.5 229.613C1365.66 226.792 1354.94 205.364 1356.88 180.213C1335.21 187.651 1314.11 183.722 1306.67 169.654C1298.02 153.303 1311.07 129.402 1335.85 116.042C1335.17 115.333 1334.5 114.606 1333.85 113.859C1316.58 94.315 1312.95 69.317 1325.73 58.0246C1338.51 46.7323 1362.87 53.4217 1380.13 72.9659C1383.55 76.8337 1386.43 80.9151 1388.76 85.0615C1390.43 82.1767 1392.38 79.3518 1394.62 76.6394C1410.62 57.2384 1435.02 50.9419 1449.13 62.5757C1463.24 74.2095 1461.71 99.3682 1445.72 118.769Z" fill="#F4ACB7"/>
<circle cx="1393.2" cy="134.479" r="22.2474" transform="rotate(39.5063 1393.2 134.479)" fill="#FFF2F2"/>
<path fill-rule="evenodd" clip-rule="evenodd" d="M1762.63 350.769C1760.71 353.101 1758.66 355.243 1756.53 357.187C1781.4 361.29 1799.4 378.179 1797.02 395.539C1794.58 413.332 1771.65 424.882 1745.82 421.338C1743.98 421.087 1742.19 420.766 1740.43 420.381C1734.7 446.337 1716.91 464.543 1699.41 461.613C1682.57 458.792 1671.85 437.365 1673.79 412.213C1652.12 419.651 1631.02 415.723 1623.58 401.654C1614.93 385.303 1627.98 361.402 1652.76 348.042C1652.09 347.333 1651.42 346.606 1650.76 345.859C1633.49 326.315 1629.86 301.317 1642.64 290.025C1655.42 278.732 1679.78 285.422 1697.05 304.966C1700.46 308.834 1703.35 312.915 1705.67 317.061C1707.34 314.177 1709.29 311.352 1711.53 308.639C1727.53 289.238 1751.93 282.942 1766.04 294.576C1780.15 306.21 1778.62 331.368 1762.63 350.769Z" fill="#F4ACB7"/>
<circle cx="1710.11" cy="366.479" r="22.2474" transform="rotate(39.5063 1710.11 366.479)" fill="#FFF2F2"/>
<path fill-rule="evenodd" clip-rule="evenodd" d="M2061.12 351.054C2059.2 353.385 2057.15 355.527 2055.02 357.472C2079.89 361.575 2097.89 378.463 2095.51 395.823C2093.07 413.616 2070.14 425.167 2044.31 421.623C2042.47 421.371 2040.68 421.051 2038.92 420.666C2033.2 446.622 2015.4 464.827 1997.91 461.897C1981.06 459.077 1970.34 437.649 1972.28 412.498C1950.62 419.936 1929.51 416.007 1922.07 401.939C1913.42 385.588 1926.47 361.687 1951.26 348.326C1950.58 347.618 1949.91 346.89 1949.25 346.144C1931.98 326.6 1928.35 301.602 1941.13 290.309C1953.91 279.017 1978.27 285.706 1995.54 305.251C1998.95 309.118 2001.84 313.2 2004.16 317.346C2005.83 314.461 2007.79 311.636 2010.02 308.924C2026.02 289.523 2050.43 283.227 2064.53 294.86C2078.64 306.494 2077.12 331.653 2061.12 351.054Z" fill="#B0D7FF"/>
<circle cx="2008.6" cy="366.763" r="22.2474" transform="rotate(39.5063 2008.6 366.763)" fill="#FFF2F2"/>
<path fill-rule="evenodd" clip-rule="evenodd" d="M183.805 350.769C181.883 353.101 179.84 355.243 177.707 357.187C202.58 361.291 220.576 378.179 218.195 395.539C215.754 413.332 192.83 424.883 166.994 421.338C165.161 421.087 163.363 420.766 161.605 420.381C155.883 446.337 138.089 464.543 120.593 461.613C103.75 458.792 93.0271 437.365 94.9664 412.213C73.3024 419.652 52.1972 415.723 44.7546 401.654C36.1046 385.304 49.1611 361.402 73.9424 348.042C73.2635 347.333 72.5939 346.606 71.9346 345.859C54.6686 326.315 51.034 301.317 63.8164 290.025C76.5989 278.732 100.958 285.422 118.224 304.966C121.641 308.834 124.524 312.915 126.851 317.062C128.519 314.177 130.473 311.352 132.709 308.64C148.706 289.239 173.112 282.942 187.222 294.576C201.331 306.21 199.802 331.368 183.805 350.769Z" fill="#B0D7FF"/>
<circle cx="131.288" cy="366.479" r="22.2474" transform="rotate(39.5063 131.288 366.479)" fill="#FFF2F2"/>
<path fill-rule="evenodd" clip-rule="evenodd" d="M822.805 363.769C820.883 366.1 818.84 368.242 816.707 370.187C841.58 374.29 859.576 391.179 857.195 408.538C854.754 426.331 831.83 437.882 805.994 434.338C804.161 434.087 802.363 433.766 800.605 433.381C794.883 459.337 777.089 477.542 759.593 474.613C742.75 471.792 732.027 450.364 733.966 425.213C712.302 432.651 691.197 428.722 683.755 414.654C675.105 398.303 688.161 374.402 712.942 361.042C712.263 360.333 711.594 359.606 710.935 358.859C693.669 339.315 690.034 314.317 702.816 303.025C715.599 291.732 739.958 298.422 757.224 317.966C760.641 321.834 763.524 325.915 765.851 330.062C767.519 327.177 769.473 324.352 771.709 321.639C787.706 302.238 812.112 295.942 826.222 307.576C840.331 319.21 838.802 344.368 822.805 363.769Z" fill="#B0D7FF"/>
<circle cx="770.289" cy="379.479" r="22.2474" transform="rotate(39.5063 770.289 379.479)" fill="#FFF2F2"/>
<path fill-rule="evenodd" clip-rule="evenodd" d="M1135.81 363.769C1133.88 366.1 1131.84 368.242 1129.71 370.187C1154.58 374.29 1172.58 391.179 1170.2 408.538C1167.75 426.331 1144.83 437.882 1118.99 434.338C1117.16 434.087 1115.36 433.766 1113.61 433.381C1107.88 459.337 1090.09 477.542 1072.59 474.613C1055.75 471.792 1045.03 450.364 1046.97 425.213C1025.3 432.651 1004.2 428.722 996.756 414.654C988.106 398.303 1001.16 374.402 1025.94 361.042C1025.26 360.333 1024.59 359.606 1023.94 358.859C1006.67 339.315 1003.03 314.317 1015.82 303.025C1028.6 291.732 1052.96 298.422 1070.22 317.966C1073.64 321.834 1076.52 325.915 1078.85 330.062C1080.52 327.177 1082.47 324.352 1084.71 321.639C1100.71 302.238 1125.11 295.942 1139.22 307.576C1153.33 319.21 1151.8 344.368 1135.81 363.769Z" fill="#F4ACB7"/>
<circle cx="1083.29" cy="379.479" r="22.2474" transform="rotate(39.5063 1083.29 379.479)" fill="#FFF2F2"/>
<path fill-rule="evenodd" clip-rule="evenodd" d="M1463.81 362.769C1461.88 365.1 1459.84 367.242 1457.71 369.187C1482.58 373.29 1500.58 390.179 1498.2 407.538C1495.75 425.331 1472.83 436.882 1446.99 433.338C1445.16 433.087 1443.36 432.766 1441.61 432.381C1435.88 458.337 1418.09 476.542 1400.59 473.613C1383.75 470.792 1373.03 449.364 1374.97 424.213C1353.3 431.651 1332.2 427.722 1324.76 413.654C1316.11 397.303 1329.16 373.402 1353.94 360.042C1353.26 359.333 1352.59 358.606 1351.94 357.859C1334.67 338.315 1331.03 313.317 1343.82 302.025C1356.6 290.732 1380.96 297.422 1398.22 316.966C1401.64 320.834 1404.52 324.915 1406.85 329.062C1408.52 326.177 1410.47 323.352 1412.71 320.639C1428.71 301.238 1453.11 294.942 1467.22 306.576C1481.33 318.21 1479.8 343.368 1463.81 362.769Z" fill="#B0D7FF"/>
<circle cx="1411.29" cy="378.479" r="22.2474" transform="rotate(39.5063 1411.29 378.479)" fill="#FFF2F2"/>
<path fill-rule="evenodd" clip-rule="evenodd" d="M500.717 350.769C498.795 353.101 496.752 355.243 494.619 357.187C519.492 361.291 537.488 378.179 535.107 395.539C532.666 413.332 509.742 424.883 483.906 421.338C482.073 421.087 480.276 420.766 478.517 420.381C472.795 446.337 455.001 464.543 437.505 461.613C420.662 458.792 409.939 437.365 411.878 412.213C390.214 419.652 369.109 415.723 361.667 401.654C353.017 385.304 366.073 361.402 390.854 348.042C390.176 347.333 389.506 346.606 388.847 345.859C371.581 326.315 367.946 301.317 380.729 290.025C393.511 278.732 417.87 285.422 435.136 304.966C438.553 308.834 441.436 312.915 443.764 317.062C445.431 314.177 447.385 311.352 449.621 308.64C465.618 289.239 490.024 282.942 504.134 294.576C518.243 306.21 516.714 331.368 500.717 350.769Z" fill="#F4ACB7"/>
<circle cx="448.201" cy="366.479" r="22.2474" transform="rotate(39.5063 448.201 366.479)" fill="#FFF2F2"/>
<path fill-rule="evenodd" clip-rule="evenodd" d="M309.98 202.818C309.384 203.541 308.75 204.205 308.089 204.808C315.8 206.08 321.378 211.315 320.64 216.697C319.884 222.213 312.777 225.793 304.768 224.695C304.2 224.617 303.643 224.517 303.098 224.398C301.324 232.444 295.808 238.088 290.384 237.18C285.162 236.305 281.838 229.663 282.44 221.866C275.724 224.172 269.181 222.954 266.874 218.593C264.193 213.524 268.24 206.115 275.922 201.973C275.712 201.753 275.504 201.528 275.3 201.296C269.947 195.238 268.821 187.488 272.783 183.988C276.746 180.487 284.297 182.561 289.649 188.619C290.709 189.818 291.602 191.084 292.324 192.369C292.841 191.475 293.446 190.599 294.14 189.758C299.099 183.744 306.665 181.792 311.039 185.398C315.413 189.005 314.938 196.804 309.98 202.818Z" fill="#FFCAD4"/>
<path fill-rule="evenodd" clip-rule="evenodd" d="M636.53 202.818C635.934 203.541 635.301 204.205 634.64 204.808C642.351 206.08 647.929 211.315 647.191 216.697C646.434 222.213 639.328 225.793 631.319 224.695C630.751 224.617 630.193 224.517 629.648 224.398C627.874 232.444 622.358 238.088 616.934 237.18C611.713 236.305 608.389 229.663 608.99 221.866C602.274 224.172 595.732 222.954 593.425 218.593C590.743 213.524 594.791 206.115 602.473 201.973C602.263 201.753 602.055 201.528 601.851 201.296C596.498 195.238 595.371 187.488 599.334 183.988C603.296 180.487 610.848 182.561 616.2 188.619C617.259 189.818 618.153 191.084 618.875 192.369C619.392 191.475 619.997 190.599 620.691 189.758C625.649 183.744 633.215 181.792 637.589 185.398C641.963 189.005 641.489 196.804 636.53 202.818Z" fill="#FFCAD4"/>
<path fill-rule="evenodd" clip-rule="evenodd" d="M939.53 202.818C938.934 203.541 938.301 204.205 937.64 204.808C945.351 206.08 950.929 211.315 950.191 216.697C949.434 222.213 942.328 225.793 934.319 224.695C933.751 224.617 933.193 224.517 932.648 224.398C930.874 232.444 925.358 238.088 919.934 237.18C914.713 236.305 911.389 229.663 911.99 221.866C905.274 224.172 898.732 222.954 896.425 218.593C893.743 213.524 897.791 206.115 905.473 201.973C905.263 201.753 905.055 201.528 904.851 201.296C899.498 195.238 898.371 187.488 902.334 183.988C906.296 180.487 913.848 182.561 919.2 188.619C920.259 189.818 921.153 191.084 921.875 192.369C922.392 191.475 922.997 190.599 923.691 189.758C928.649 183.744 936.215 181.792 940.589 185.398C944.963 189.005 944.489 196.804 939.53 202.818Z" fill="#FFCAD4"/>
<path fill-rule="evenodd" clip-rule="evenodd" d="M1261.53 202.818C1260.93 203.541 1260.3 204.205 1259.64 204.808C1267.35 206.08 1272.93 211.315 1272.19 216.697C1271.43 222.213 1264.33 225.793 1256.32 224.695C1255.75 224.617 1255.19 224.517 1254.65 224.398C1252.87 232.444 1247.36 238.088 1241.93 237.18C1236.71 236.305 1233.39 229.663 1233.99 221.866C1227.27 224.172 1220.73 222.954 1218.42 218.593C1215.74 213.524 1219.79 206.115 1227.47 201.973C1227.26 201.753 1227.05 201.528 1226.85 201.296C1221.5 195.238 1220.37 187.488 1224.33 183.988C1228.3 180.487 1235.85 182.561 1241.2 188.619C1242.26 189.818 1243.15 191.084 1243.87 192.369C1244.39 191.475 1245 190.599 1245.69 189.758C1250.65 183.744 1258.22 181.792 1262.59 185.398C1266.96 189.005 1266.49 196.804 1261.53 202.818Z" fill="#FFCAD4"/>
<path fill-rule="evenodd" clip-rule="evenodd" d="M1573.53 202.818C1572.93 203.541 1572.3 204.205 1571.64 204.808C1579.35 206.08 1584.93 211.315 1584.19 216.697C1583.43 222.213 1576.33 225.793 1568.32 224.695C1567.75 224.617 1567.19 224.517 1566.65 224.398C1564.87 232.444 1559.36 238.088 1553.93 237.18C1548.71 236.305 1545.39 229.663 1545.99 221.866C1539.27 224.172 1532.73 222.954 1530.42 218.593C1527.74 213.524 1531.79 206.115 1539.47 201.973C1539.26 201.753 1539.05 201.528 1538.85 201.296C1533.5 195.238 1532.37 187.488 1536.33 183.988C1540.3 180.487 1547.85 182.561 1553.2 188.619C1554.26 189.818 1555.15 191.084 1555.87 192.369C1556.39 191.475 1557 190.599 1557.69 189.758C1562.65 183.744 1570.22 181.792 1574.59 185.398C1578.96 189.005 1578.49 196.804 1573.53 202.818Z" fill="#FFCAD4"/>
<path fill-rule="evenodd" clip-rule="evenodd" d="M1881.53 202.818C1880.93 203.541 1880.3 204.205 1879.64 204.808C1887.35 206.08 1892.93 211.315 1892.19 216.697C1891.43 222.213 1884.33 225.793 1876.32 224.695C1875.75 224.617 1875.19 224.517 1874.65 224.398C1872.87 232.444 1867.36 238.088 1861.93 237.18C1856.71 236.305 1853.39 229.663 1853.99 221.866C1847.27 224.172 1840.73 222.954 1838.42 218.593C1835.74 213.524 1839.79 206.115 1847.47 201.973C1847.26 201.753 1847.05 201.528 1846.85 201.296C1841.5 195.238 1840.37 187.488 1844.33 183.988C1848.3 180.487 1855.85 182.561 1861.2 188.619C1862.26 189.818 1863.15 191.084 1863.87 192.369C1864.39 191.475 1865 190.599 1865.69 189.758C1870.65 183.744 1878.22 181.792 1882.59 185.398C1886.96 189.005 1886.49 196.804 1881.53 202.818Z" fill="#FFCAD4"/>
<path fill-rule="evenodd" clip-rule="evenodd" d="M314.98 457.818C314.384 458.541 313.75 459.205 313.089 459.808C320.8 461.08 326.378 466.315 325.64 471.697C324.884 477.213 317.777 480.793 309.768 479.695C309.2 479.617 308.643 479.517 308.098 479.398C306.324 487.444 300.808 493.088 295.384 492.18C290.162 491.305 286.838 484.663 287.44 476.866C280.724 479.172 274.181 477.954 271.874 473.593C269.193 468.524 273.24 461.115 280.922 456.973C280.712 456.753 280.504 456.528 280.3 456.296C274.947 450.238 273.821 442.488 277.783 438.988C281.746 435.487 289.297 437.561 294.649 443.619C295.709 444.818 296.602 446.084 297.324 447.369C297.841 446.475 298.446 445.599 299.14 444.758C304.099 438.744 311.665 436.792 316.039 440.398C320.413 444.005 319.938 451.804 314.98 457.818Z" fill="#FFCAD4"/>
<path fill-rule="evenodd" clip-rule="evenodd" d="M636.53 469.603C635.934 470.326 635.301 470.99 634.64 471.593C642.351 472.865 647.929 478.1 647.191 483.482C646.434 488.998 639.328 492.578 631.319 491.48C630.751 491.402 630.193 491.302 629.648 491.183C627.874 499.229 622.358 504.873 616.934 503.965C611.713 503.091 608.389 496.448 608.99 488.651C602.274 490.957 595.732 489.739 593.425 485.378C590.743 480.309 594.791 472.9 602.473 468.758C602.263 468.538 602.055 468.313 601.851 468.081C596.498 462.023 595.371 454.273 599.334 450.773C603.296 447.272 610.848 449.346 616.2 455.404C617.259 456.603 618.153 457.869 618.875 459.154C619.392 458.26 619.997 457.384 620.691 456.543C625.649 450.529 633.215 448.577 637.589 452.184C641.963 455.79 641.489 463.589 636.53 469.603Z" fill="#FFCAD4"/>
<path fill-rule="evenodd" clip-rule="evenodd" d="M939.53 469.603C938.934 470.326 938.301 470.99 937.64 471.593C945.351 472.865 950.929 478.1 950.191 483.482C949.434 488.998 942.328 492.578 934.319 491.48C933.751 491.402 933.193 491.302 932.648 491.183C930.874 499.229 925.358 504.873 919.934 503.965C914.713 503.091 911.389 496.448 911.99 488.651C905.274 490.957 898.732 489.739 896.425 485.378C893.743 480.309 897.791 472.9 905.473 468.758C905.263 468.538 905.055 468.313 904.851 468.081C899.498 462.023 898.371 454.273 902.334 450.773C906.296 447.272 913.848 449.346 919.2 455.404C920.259 456.603 921.153 457.869 921.875 459.154C922.392 458.26 922.997 457.384 923.691 456.543C928.649 450.529 936.215 448.577 940.589 452.184C944.963 455.79 944.489 463.589 939.53 469.603Z" fill="#FFCAD4"/>
<path fill-rule="evenodd" clip-rule="evenodd" d="M1261.53 469.603C1260.93 470.326 1260.3 470.99 1259.64 471.593C1267.35 472.865 1272.93 478.1 1272.19 483.482C1271.43 488.998 1264.33 492.578 1256.32 491.48C1255.75 491.402 1255.19 491.302 1254.65 491.183C1252.87 499.229 1247.36 504.873 1241.93 503.965C1236.71 503.091 1233.39 496.448 1233.99 488.651C1227.27 490.957 1220.73 489.739 1218.42 485.378C1215.74 480.309 1219.79 472.9 1227.47 468.758C1227.26 468.538 1227.05 468.313 1226.85 468.081C1221.5 462.023 1220.37 454.273 1224.33 450.773C1228.3 447.272 1235.85 449.346 1241.2 455.404C1242.26 456.603 1243.15 457.869 1243.87 459.154C1244.39 458.26 1245 457.384 1245.69 456.543C1250.65 450.529 1258.22 448.577 1262.59 452.184C1266.96 455.79 1266.49 463.589 1261.53 469.603Z" fill="#FFCAD4"/>
<path fill-rule="evenodd" clip-rule="evenodd" d="M1573.53 469.603C1572.93 470.326 1572.3 470.99 1571.64 471.593C1579.35 472.865 1584.93 478.1 1584.19 483.482C1583.43 488.998 1576.33 492.578 1568.32 491.48C1567.75 491.402 1567.19 491.302 1566.65 491.183C1564.87 499.229 1559.36 504.873 1553.93 503.965C1548.71 503.091 1545.39 496.448 1545.99 488.651C1539.27 490.957 1532.73 489.739 1530.42 485.378C1527.74 480.309 1531.79 472.9 1539.47 468.758C1539.26 468.538 1539.05 468.313 1538.85 468.081C1533.5 462.023 1532.37 454.273 1536.33 450.773C1540.3 447.272 1547.85 449.346 1553.2 455.404C1554.26 456.603 1555.15 457.869 1555.87 459.154C1556.39 458.26 1557 457.384 1557.69 456.543C1562.65 450.529 1570.22 448.577 1574.59 452.184C1578.96 455.79 1578.49 463.589 1573.53 469.603Z" fill="#FFCAD4"/>
<path fill-rule="evenodd" clip-rule="evenodd" d="M1881.53 469.603C1880.93 470.326 1880.3 470.99 1879.64 471.593C1887.35 472.865 1892.93 478.1 1892.19 483.482C1891.43 488.998 1884.33 492.578 1876.32 491.48C1875.75 491.402 1875.19 491.302 1874.65 491.183C1872.87 499.229 1867.36 504.873 1861.93 503.965C1856.71 503.091 1853.39 496.448 1853.99 488.651C1847.27 490.957 1840.73 489.739 1838.42 485.378C1835.74 480.309 1839.79 472.9 1847.47 468.758C1847.26 468.538 1847.05 468.313 1846.85 468.081C1841.5 462.023 1840.37 454.273 1844.33 450.773C1848.3 447.272 1855.85 449.346 1861.2 455.404C1862.26 456.603 1863.15 457.869 1863.87 459.154C1864.39 458.26 1865 457.384 1865.69 456.543C1870.65 450.529 1878.22 448.577 1882.59 452.184C1886.96 455.79 1886.49 463.589 1881.53 469.603Z" fill="#FFCAD4"/>
<path fill-rule="evenodd" clip-rule="evenodd" d="M309.98 672.818C309.384 673.541 308.75 674.205 308.089 674.808C315.8 676.08 321.378 681.315 320.64 686.697C319.884 692.213 312.777 695.793 304.768 694.695C304.2 694.617 303.643 694.517 303.098 694.398C301.324 702.444 295.808 708.088 290.384 707.18C285.162 706.305 281.838 699.663 282.44 691.866C275.724 694.172 269.181 692.954 266.874 688.593C264.193 683.524 268.24 676.115 275.922 671.973C275.712 671.753 275.504 671.528 275.3 671.296C269.947 665.238 268.821 657.488 272.783 653.988C276.746 650.487 284.297 652.561 289.649 658.619C290.709 659.818 291.602 661.084 292.324 662.369C292.841 661.475 293.446 660.599 294.14 659.758C299.099 653.744 306.665 651.792 311.039 655.398C315.413 659.005 314.938 666.804 309.98 672.818Z" fill="#FFCAD4"/>
<path fill-rule="evenodd" clip-rule="evenodd" d="M636.53 694.603C635.934 695.326 635.301 695.99 634.64 696.593C642.351 697.865 647.929 703.1 647.191 708.482C646.434 713.998 639.328 717.578 631.319 716.48C630.751 716.402 630.193 716.302 629.648 716.183C627.874 724.229 622.358 729.873 616.934 728.965C611.713 728.091 608.389 721.448 608.99 713.651C602.274 715.957 595.732 714.739 593.425 710.378C590.743 705.309 594.791 697.9 602.473 693.758C602.263 693.538 602.055 693.313 601.851 693.081C596.498 687.023 595.371 679.273 599.334 675.773C603.296 672.272 610.848 674.346 616.2 680.404C617.259 681.603 618.153 682.869 618.875 684.154C619.392 683.26 619.997 682.384 620.691 681.543C625.649 675.529 633.215 673.577 637.589 677.184C641.963 680.79 641.489 688.589 636.53 694.603Z" fill="#FFCAD4"/>
<path fill-rule="evenodd" clip-rule="evenodd" d="M939.53 694.603C938.934 695.326 938.301 695.99 937.64 696.593C945.351 697.865 950.929 703.1 950.191 708.482C949.434 713.998 942.328 717.578 934.319 716.48C933.751 716.402 933.193 716.302 932.648 716.183C930.874 724.229 925.358 729.873 919.934 728.965C914.713 728.091 911.389 721.448 911.99 713.651C905.274 715.957 898.732 714.739 896.425 710.378C893.743 705.309 897.791 697.9 905.473 693.758C905.263 693.538 905.055 693.313 904.851 693.081C899.498 687.023 898.371 679.273 902.334 675.773C906.296 672.272 913.848 674.346 919.2 680.404C920.259 681.603 921.153 682.869 921.875 684.154C922.392 683.26 922.997 682.384 923.691 681.543C928.649 675.529 936.215 673.577 940.589 677.184C944.963 680.79 944.489 688.589 939.53 694.603Z" fill="#FFCAD4"/>
<path fill-rule="evenodd" clip-rule="evenodd" d="M1261.53 694.603C1260.93 695.326 1260.3 695.99 1259.64 696.593C1267.35 697.865 1272.93 703.1 1272.19 708.482C1271.43 713.998 1264.33 717.578 1256.32 716.48C1255.75 716.402 1255.19 716.302 1254.65 716.183C1252.87 724.229 1247.36 729.873 1241.93 728.965C1236.71 728.091 1233.39 721.448 1233.99 713.651C1227.27 715.957 1220.73 714.739 1218.42 710.378C1215.74 705.309 1219.79 697.9 1227.47 693.758C1227.26 693.538 1227.05 693.313 1226.85 693.081C1221.5 687.023 1220.37 679.273 1224.33 675.773C1228.3 672.272 1235.85 674.346 1241.2 680.404C1242.26 681.603 1243.15 682.869 1243.87 684.154C1244.39 683.26 1245 682.384 1245.69 681.543C1250.65 675.529 1258.22 673.577 1262.59 677.184C1266.96 680.79 1266.49 688.589 1261.53 694.603Z" fill="#FFCAD4"/>
<path fill-rule="evenodd" clip-rule="evenodd" d="M1573.53 694.603C1572.93 695.326 1572.3 695.99 1571.64 696.593C1579.35 697.865 1584.93 703.1 1584.19 708.482C1583.43 713.998 1576.33 717.578 1568.32 716.48C1567.75 716.402 1567.19 716.302 1566.65 716.183C1564.87 724.229 1559.36 729.873 1553.93 728.965C1548.71 728.091 1545.39 721.448 1545.99 713.651C1539.27 715.957 1532.73 714.739 1530.42 710.378C1527.74 705.309 1531.79 697.9 1539.47 693.758C1539.26 693.538 1539.05 693.313 1538.85 693.081C1533.5 687.023 1532.37 679.273 1536.33 675.773C1540.3 672.272 1547.85 674.346 1553.2 680.404C1554.26 681.603 1555.15 682.869 1555.87 684.154C1556.39 683.26 1557 682.384 1557.69 681.543C1562.65 675.529 1570.22 673.577 1574.59 677.184C1578.96 680.79 1578.49 688.589 1573.53 694.603Z" fill="#FFCAD4"/>
<path fill-rule="evenodd" clip-rule="evenodd" d="M1881.53 694.603C1880.93 695.326 1880.3 695.99 1879.64 696.593C1887.35 697.865 1892.93 703.1 1892.19 708.482C1891.43 713.998 1884.33 717.578 1876.32 716.48C1875.75 716.402 1875.19 716.302 1874.65 716.183C1872.87 724.229 1867.36 729.873 1861.93 728.965C1856.71 728.091 1853.39 721.448 1853.99 713.651C1847.27 715.957 1840.73 714.739 1838.42 710.378C1835.74 705.309 1839.79 697.9 1847.47 693.758C1847.26 693.538 1847.05 693.313 1846.85 693.081C1841.5 687.023 1840.37 679.273 1844.33 675.773C1848.3 672.272 1855.85 674.346 1861.2 680.404C1862.26 681.603 1863.15 682.869 1863.87 684.154C1864.39 683.26 1865 682.384 1865.69 681.543C1870.65 675.529 1878.22 673.577 1882.59 677.184C1886.96 680.79 1886.49 688.589 1881.53 694.603Z" fill="#FFCAD4"/>
<path fill-rule="evenodd" clip-rule="evenodd" d="M314.98 886.888C314.384 887.611 313.75 888.275 313.089 888.878C320.8 890.15 326.378 895.385 325.64 900.767C324.884 906.282 317.777 909.863 309.768 908.764C309.2 908.686 308.643 908.587 308.098 908.468C306.324 916.514 300.808 922.158 295.384 921.25C290.162 920.375 286.838 913.733 287.44 905.936C280.724 908.242 274.181 907.024 271.874 902.662C269.193 897.594 273.24 890.184 280.922 886.043C280.712 885.823 280.504 885.597 280.3 885.366C274.947 879.307 273.821 871.558 277.783 868.057C281.746 864.557 289.297 866.63 294.649 872.689C295.709 873.888 296.602 875.153 297.324 876.439C297.841 875.544 298.446 874.669 299.14 873.828C304.099 867.814 311.665 865.862 316.039 869.468C320.413 873.075 319.938 880.874 314.98 886.888Z" fill="#FFCAD4"/>
<path fill-rule="evenodd" clip-rule="evenodd" d="M631.98 886.888C631.384 887.611 630.75 888.275 630.089 888.878C637.8 890.15 643.378 895.385 642.64 900.767C641.884 906.282 634.777 909.863 626.768 908.764C626.2 908.686 625.643 908.587 625.098 908.468C623.324 916.514 617.808 922.158 612.384 921.25C607.162 920.375 603.838 913.733 604.44 905.936C597.724 908.242 591.181 907.024 588.874 902.662C586.193 897.594 590.24 890.184 597.922 886.043C597.712 885.823 597.504 885.597 597.3 885.366C591.947 879.307 590.821 871.558 594.783 868.057C598.746 864.557 606.297 866.63 611.649 872.689C612.709 873.888 613.602 875.153 614.324 876.439C614.841 875.544 615.446 874.669 616.14 873.828C621.099 867.814 628.665 865.862 633.039 869.468C637.413 873.075 636.938 880.874 631.98 886.888Z" fill="#FFCAD4"/>
<path fill-rule="evenodd" clip-rule="evenodd" d="M934.98 886.888C934.384 887.611 933.75 888.275 933.089 888.878C940.8 890.15 946.378 895.385 945.64 900.767C944.884 906.282 937.777 909.863 929.768 908.764C929.2 908.686 928.643 908.587 928.098 908.468C926.324 916.514 920.808 922.158 915.384 921.25C910.162 920.375 906.838 913.733 907.44 905.936C900.724 908.242 894.181 907.024 891.874 902.662C889.193 897.594 893.24 890.184 900.922 886.043C900.712 885.823 900.504 885.597 900.3 885.366C894.947 879.307 893.821 871.558 897.783 868.057C901.746 864.557 909.297 866.63 914.649 872.689C915.709 873.888 916.602 875.153 917.324 876.439C917.841 875.544 918.446 874.669 919.14 873.828C924.099 867.814 931.665 865.862 936.039 869.468C940.413 873.075 939.938 880.874 934.98 886.888Z" fill="#FFCAD4"/>
<path fill-rule="evenodd" clip-rule="evenodd" d="M1256.98 886.888C1256.38 887.611 1255.75 888.275 1255.09 888.878C1262.8 890.15 1268.38 895.385 1267.64 900.767C1266.88 906.282 1259.78 909.863 1251.77 908.764C1251.2 908.686 1250.64 908.587 1250.1 908.468C1248.32 916.514 1242.81 922.158 1237.38 921.25C1232.16 920.375 1228.84 913.733 1229.44 905.936C1222.72 908.242 1216.18 907.024 1213.87 902.662C1211.19 897.594 1215.24 890.184 1222.92 886.043C1222.71 885.823 1222.5 885.597 1222.3 885.366C1216.95 879.307 1215.82 871.558 1219.78 868.057C1223.75 864.557 1231.3 866.63 1236.65 872.689C1237.71 873.888 1238.6 875.153 1239.32 876.439C1239.84 875.544 1240.45 874.669 1241.14 873.828C1246.1 867.814 1253.66 865.862 1258.04 869.468C1262.41 873.075 1261.94 880.874 1256.98 886.888Z" fill="#FFCAD4"/>
<path fill-rule="evenodd" clip-rule="evenodd" d="M1568.98 886.888C1568.38 887.611 1567.75 888.275 1567.09 888.878C1574.8 890.15 1580.38 895.385 1579.64 900.767C1578.88 906.282 1571.78 909.863 1563.77 908.764C1563.2 908.686 1562.64 908.587 1562.1 908.468C1560.32 916.514 1554.81 922.158 1549.38 921.25C1544.16 920.375 1540.84 913.733 1541.44 905.936C1534.72 908.242 1528.18 907.024 1525.87 902.662C1523.19 897.594 1527.24 890.184 1534.92 886.043C1534.71 885.823 1534.5 885.597 1534.3 885.366C1528.95 879.307 1527.82 871.558 1531.78 868.057C1535.75 864.557 1543.3 866.63 1548.65 872.689C1549.71 873.888 1550.6 875.153 1551.32 876.439C1551.84 875.544 1552.45 874.669 1553.14 873.828C1558.1 867.814 1565.66 865.862 1570.04 869.468C1574.41 873.075 1573.94 880.874 1568.98 886.888Z" fill="#FFCAD4"/>
<path fill-rule="evenodd" clip-rule="evenodd" d="M1876.98 886.888C1876.38 887.611 1875.75 888.275 1875.09 888.878C1882.8 890.15 1888.38 895.385 1887.64 900.767C1886.88 906.282 1879.78 909.863 1871.77 908.764C1871.2 908.686 1870.64 908.587 1870.1 908.468C1868.32 916.514 1862.81 922.158 1857.38 921.25C1852.16 920.375 1848.84 913.733 1849.44 905.936C1842.72 908.242 1836.18 907.024 1833.87 902.662C1831.19 897.594 1835.24 890.184 1842.92 886.043C1842.71 885.823 1842.5 885.597 1842.3 885.366C1836.95 879.307 1835.82 871.558 1839.78 868.057C1843.75 864.557 1851.3 866.63 1856.65 872.689C1857.71 873.888 1858.6 875.153 1859.32 876.439C1859.84 875.544 1860.45 874.669 1861.14 873.828C1866.1 867.814 1873.66 865.862 1878.04 869.468C1882.41 873.075 1881.94 880.874 1876.98 886.888Z" fill="#FFCAD4"/>
</svg>
