<svg width="131" height="159" viewBox="0 0 131 159" fill="none" xmlns="http://www.w3.org/2000/svg">
<circle cx="65.5" cy="70.5115" r="63" stroke="#FF6B6B" stroke-width="5"/>
<path d="M52.2783 98H42.3027C38.9189 98 35.623 98 32.2832 97.9561C31.2285 97.9561 30.0859 97.8242 28.8555 97.6045C27.625 97.3848 26.5264 96.9453 25.6035 96.2861C24.6807 95.627 24.1973 94.6602 24.1973 93.3857C24.1973 92.6387 24.373 91.8477 24.7686 91.0566C25.5156 89.6943 25.999 88.2441 26.2627 86.7061C26.5264 85.168 26.6582 83.6738 26.6582 82.1357V60.5586C26.6582 59.0205 26.5264 57.4824 26.2627 55.9443C25.999 54.4502 25.5156 53 24.7686 51.6377C24.373 50.8027 24.1973 50.0557 24.1973 49.3086C24.1973 48.2979 24.5049 47.4629 25.1201 46.8477C25.7354 46.2324 26.5264 45.749 27.4492 45.4414C28.3721 45.1338 29.3828 44.958 30.3936 44.8701C31.4043 44.7822 32.2832 44.7383 33.0742 44.7383C34.085 44.7383 35.2275 44.8262 36.5459 45.0459C37.8643 45.2656 39.0068 45.6611 40.0176 46.3203C40.9844 46.9795 41.4678 47.9902 41.4678 49.3086C41.4678 50.0557 41.248 50.8027 40.8525 51.6377C40.1494 53 39.666 54.4502 39.4023 55.9443C39.1387 57.4824 39.0068 59.0205 39.0068 60.5586V82.1357C39.0068 83.6738 39.0947 85.2119 39.2705 86.7939C39.4023 88.376 39.8418 89.8701 40.501 91.3203C40.8525 92.0234 41.292 92.5508 41.8193 92.8584C42.3027 93.166 43.0059 93.3418 43.8408 93.3418L44.2803 93.2979V93.3418C46.082 93.1221 47.3125 92.4189 47.8838 91.1445C48.4551 89.9141 48.8066 88.5078 48.9824 86.9258C49.1582 85.2119 49.5537 83.7617 50.2129 82.5752C50.8281 81.3887 52.1025 80.8174 53.9482 80.8174H54.3438C55.9697 80.9932 57.4199 81.6523 58.6943 82.8389C59.9248 84.0254 60.8037 85.2998 61.2871 86.6621C61.7705 88.0684 62.0342 89.2988 62.0342 90.3535C62.0342 90.9248 61.9902 91.54 61.8584 92.1113C61.5508 93.7812 60.6279 95.1875 59.1338 96.2861C57.5957 97.4287 55.3105 98 52.2783 98ZM100.244 97.9561C96.9479 97.9561 94.2232 97.209 92.026 95.6709C89.7848 94.1328 87.983 92.1553 86.5328 89.7383C85.0826 87.3213 83.94 84.6846 83.0172 81.8281C82.0943 78.9717 81.2594 76.2031 80.6002 73.4785C80.0289 71.1934 79.4137 69.1279 78.8424 67.2383C78.2271 65.3926 77.524 63.8984 76.733 62.7998L76.6891 62.7559C76.6012 62.7559 76.5572 63.1074 76.5572 63.7227V75.5439C76.5572 76.8623 76.6451 78.0488 76.8209 79.0596C76.9967 80.0703 77.2164 80.9932 77.524 81.8281C77.8316 82.6631 78.1393 83.4541 78.4908 84.1133C78.8424 84.8164 79.1939 85.4756 79.5455 86.1348C80.1607 87.1455 80.6881 88.2002 81.1715 89.2988C81.6109 90.3975 81.8307 91.6719 81.8307 93.21C81.8307 94.9238 81.0836 96.1104 79.6334 96.8574C78.1832 97.6045 76.3375 97.9561 74.1402 97.9561C71.899 97.9561 70.0973 97.6045 68.6471 96.8574C67.1969 96.1104 66.4938 94.9238 66.4938 93.21C66.4938 91.54 66.7135 90.1338 67.1969 88.9912C67.6363 87.8926 68.1637 86.7939 68.8229 85.7393C69.526 84.5527 70.1852 83.2344 70.8004 81.6963C71.3717 80.1582 71.6793 78.1367 71.6793 75.6318V70.1387L71.7232 64.7334C71.7232 63.0195 71.3717 61.1738 70.6686 59.1084C69.9654 57.0869 69.0865 55.3291 68.0758 53.8789C67.109 52.2529 66.6256 50.8467 66.6256 49.6602C66.6256 49.1768 66.8453 48.5176 67.1969 47.6387C67.5484 46.7598 68.4713 46.0127 69.9215 45.4414C71.3277 44.8701 72.69 44.6064 74.0084 44.6064H74.1842C77.568 44.7383 80.2926 45.8369 82.2701 47.9023C84.2477 50.0117 85.8297 52.6484 86.9283 55.8564C88.027 59.0645 88.9498 62.3604 89.7408 65.7881C90.3121 68.2051 90.9273 70.5342 91.5865 72.7314C92.2457 74.9287 93.0367 76.8184 94.0035 78.4004C94.9264 80.0264 96.1568 81.1689 97.607 81.8281H97.651C97.8707 81.8281 97.9586 81.4766 97.9586 80.8174C97.9586 80.0703 97.9586 79.3232 97.9146 78.6201C97.8707 78.2686 97.8707 74.4014 97.8268 66.9746C97.8268 65.2607 97.6949 63.8105 97.3873 62.624C97.0797 61.4375 96.7281 60.3389 96.3326 59.416C95.8932 58.4932 95.4537 57.6582 94.9703 56.8232C94.3111 55.8125 93.7838 54.7139 93.3443 53.5713C92.8609 52.4287 92.6412 51.0225 92.6412 49.3525C92.6412 47.6826 93.3443 46.4521 94.7945 45.7051C96.2447 44.958 98.0465 44.6064 100.288 44.6064C102.485 44.6064 104.331 44.958 105.781 45.7051C107.231 46.4521 107.978 47.6826 107.978 49.3525C107.978 50.8906 107.758 52.165 107.319 53.2637C106.836 54.3623 106.308 55.4609 105.693 56.4717C105.21 57.3066 104.726 58.2295 104.287 59.1963C103.847 60.1631 103.496 61.2617 103.188 62.5361C102.88 63.8105 102.705 65.3047 102.705 67.0186V77.873C102.705 79.5869 103.056 81.4766 103.715 83.5859C104.375 85.6953 105.21 87.4092 106.308 88.6836C107.187 89.8262 107.627 91.0127 107.627 92.2871C107.627 92.4629 107.583 92.9463 107.495 93.7373C107.407 94.5283 106.748 95.4072 105.517 96.418C104.243 97.4287 102.485 97.9561 100.244 97.9561Z" fill="#FF6B6B"/>
</svg>
